<svg width="20" height="20" viewBox="0 0 20 20" fill="none" xmlns="http://www.w3.org/2000/svg">
<g clip-path="url(#clip0_1441_5457)">
<path d="M0.428125 9.88041C0.427656 11.5608 0.870156 13.2016 1.71156 14.6478L0.347656 19.589L5.44391 18.2631C6.85346 19.0245 8.43277 19.4235 10.0377 19.4236H10.0419C15.3399 19.4236 19.6527 15.1458 19.6549 9.88793C19.6559 7.3401 18.6569 4.94428 16.8417 3.1418C15.0269 1.33948 12.6132 0.346378 10.0415 0.345215C4.74281 0.345215 0.430391 4.62273 0.428203 9.88041" fill="#E31E24"/>
<path d="M7.55156 5.74801C7.36516 5.33692 7.16898 5.32863 6.99172 5.32142C6.84656 5.31522 6.68062 5.31568 6.51484 5.31568C6.34891 5.31568 6.0793 5.37762 5.85141 5.62452C5.62328 5.87165 4.98047 6.46886 4.98047 7.68351C4.98047 8.89824 5.87211 10.0721 5.99641 10.237C6.12086 10.4016 7.71773 12.974 10.2468 13.9636C12.3487 14.786 12.7764 14.6224 13.2326 14.5812C13.6888 14.5401 14.7048 13.9841 14.912 13.4076C15.1195 12.8312 15.1195 12.3371 15.0573 12.2338C14.9951 12.131 14.8291 12.0692 14.5803 11.9458C14.3314 11.8223 13.1081 11.225 12.8801 11.1426C12.652 11.0603 12.4861 11.0192 12.3202 11.2664C12.1542 11.5132 11.6777 12.0692 11.5325 12.2338C11.3874 12.3989 11.2422 12.4194 10.9934 12.2959C10.7445 12.172 9.94313 11.9117 8.99242 11.0706C8.25273 10.4162 7.75336 9.60808 7.6082 9.36088C7.46305 9.11405 7.59266 8.98026 7.71742 8.85723C7.82922 8.74661 7.96633 8.56894 8.09086 8.42483C8.21492 8.28064 8.25633 8.17777 8.3393 8.01312C8.42234 7.84832 8.38078 7.70413 8.31867 7.58064C8.25633 7.45715 7.77281 6.23622 7.55156 5.74809" fill="white"/>
</g>
<defs>
<clipPath id="clip0_1441_5457">
<rect width="20" height="20" fill="white"/>
</clipPath>
</defs>
</svg>
