<svg width="20" height="20" viewBox="0 0 20 20" fill="none" xmlns="http://www.w3.org/2000/svg">
<path d="M9.99943 2.1328C12.5627 2.1328 12.8664 2.14259 13.8786 2.18878C14.8146 2.23146 15.3229 2.38785 15.6612 2.51932C16.1093 2.69347 16.4291 2.90149 16.765 3.23741C17.101 3.57336 17.309 3.89316 17.4832 4.34126C17.6146 4.67953 17.771 5.18784 17.8137 6.12383C17.8599 7.13611 17.8697 7.43975 17.8697 10.003C17.8697 12.5663 17.8599 12.87 17.8137 13.8823C17.771 14.8182 17.6146 15.3265 17.4832 15.6648C17.309 16.1129 17.101 16.4327 16.7651 16.7686C16.4291 17.1046 16.1093 17.3126 15.6612 17.4868C15.3229 17.6182 14.8146 17.7746 13.8786 17.8173C12.8665 17.8635 12.5629 17.8733 9.99943 17.8733C7.43592 17.8733 7.13236 17.8635 6.12019 17.8173C5.1842 17.7746 4.67589 17.6182 4.33761 17.4868C3.88951 17.3126 3.56971 17.1046 3.23379 16.7686C2.89788 16.4327 2.68981 16.1129 2.51566 15.6648C2.38419 15.3265 2.2278 14.8182 2.18512 13.8823C2.13893 12.87 2.12914 12.5663 2.12914 10.003C2.12914 7.43975 2.13893 7.13611 2.18512 6.12383C2.2278 5.18784 2.38419 4.67953 2.51566 4.34126C2.68981 3.89316 2.89784 3.57336 3.23379 3.23745C3.56971 2.90149 3.88951 2.69347 4.33761 2.51932C4.67589 2.38785 5.1842 2.23146 6.12019 2.18878C7.13247 2.14259 7.43611 2.1328 9.99943 2.1328ZM9.99943 0.403076C7.39221 0.403076 7.06529 0.414127 6.04135 0.460847C5.01954 0.507452 4.32168 0.66975 3.71105 0.907043C3.07976 1.15238 2.5444 1.48063 2.01067 2.01432C1.47697 2.54805 1.14872 3.08342 0.903421 3.7147C0.666089 4.32533 0.50379 5.02318 0.457185 6.04499C0.410465 7.06893 0.399414 7.39585 0.399414 10.003C0.399414 12.6102 0.410465 12.9372 0.457185 13.9611C0.50379 14.9829 0.666089 15.6808 0.903421 16.2914C1.14872 16.9227 1.47697 17.458 2.01067 17.9918C2.5444 18.5255 3.07976 18.8537 3.71105 19.099C4.32168 19.3363 5.01954 19.4986 6.04135 19.5452C7.06529 19.592 7.39221 19.603 9.99943 19.603C12.6066 19.603 12.9335 19.592 13.9575 19.5452C14.9793 19.4986 15.6771 19.3363 16.2878 19.099C16.9191 18.8537 17.4544 18.5255 17.9882 17.9918C18.5219 17.458 18.8501 16.9227 19.0954 16.2914C19.3327 15.6808 19.495 14.9829 19.5416 13.9611C19.5884 12.9372 19.5994 12.6102 19.5994 10.003C19.5994 7.39585 19.5884 7.06893 19.5416 6.04499C19.495 5.02318 19.3327 4.32533 19.0954 3.7147C18.8501 3.08342 18.5219 2.54805 17.9882 2.01432C17.4544 1.48063 16.9191 1.15238 16.2878 0.907043C15.6771 0.66975 14.9793 0.507452 13.9575 0.460847C12.9335 0.414127 12.6066 0.403076 9.99943 0.403076Z" fill="#E31E24"/>
<path d="M10.004 5.07349C7.28131 5.07349 5.07422 7.28058 5.07422 10.0032C5.07422 12.7258 7.28131 14.9329 10.004 14.9329C12.7266 14.9329 14.9337 12.7258 14.9337 10.0032C14.9337 7.28058 12.7266 5.07349 10.004 5.07349ZM10.004 13.2032C8.23663 13.2032 6.80395 11.7705 6.80395 10.0032C6.80395 8.23588 8.23663 6.80321 10.004 6.80321C11.7713 6.80321 13.2039 8.23588 13.2039 10.0032C13.2039 11.7705 11.7713 13.2032 10.004 13.2032Z" fill="#E31E24"/>
<path d="M16.2806 4.87687C16.2806 5.51307 15.7648 6.02885 15.1285 6.02885C14.4923 6.02885 13.9766 5.51307 13.9766 4.87687C13.9766 4.24063 14.4923 3.72485 15.1285 3.72485C15.7648 3.72485 16.2806 4.24063 16.2806 4.87687Z" fill="#E31E24"/>
</svg>
