<svg width="20" height="20" viewBox="0 0 20 20" fill="none" xmlns="http://www.w3.org/2000/svg">
<path d="M9.99846 2.1328C12.5617 2.1328 12.8654 2.14259 13.8777 2.18878C14.8137 2.23146 15.322 2.38785 15.6602 2.51932C16.1083 2.69347 16.4281 2.90149 16.7641 3.23741C17.1 3.57336 17.308 3.89316 17.4822 4.34126C17.6137 4.67953 17.77 5.18784 17.8127 6.12383C17.8589 7.13611 17.8687 7.43975 17.8687 10.003C17.8687 12.5663 17.8589 12.87 17.8127 13.8823C17.77 14.8182 17.6137 15.3265 17.4822 15.6648C17.308 16.1129 17.1 16.4327 16.7641 16.7686C16.4281 17.1046 16.1083 17.3126 15.6602 17.4868C15.322 17.6182 14.8137 17.7746 13.8777 17.8173C12.8655 17.8635 12.5619 17.8733 9.99846 17.8733C7.43494 17.8733 7.13138 17.8635 6.11921 17.8173C5.18322 17.7746 4.67491 17.6182 4.33663 17.4868C3.88853 17.3126 3.56873 17.1046 3.23282 16.7686C2.8969 16.4327 2.68884 16.1129 2.51469 15.6648C2.38322 15.3265 2.22682 14.8182 2.18414 13.8823C2.13796 12.87 2.12816 12.5663 2.12816 10.003C2.12816 7.43975 2.13796 7.13611 2.18414 6.12383C2.22682 5.18784 2.38322 4.67953 2.51469 4.34126C2.68884 3.89316 2.89686 3.57336 3.23282 3.23745C3.56873 2.90149 3.88853 2.69347 4.33663 2.51932C4.67491 2.38785 5.18322 2.23146 6.11921 2.18878C7.13149 2.14259 7.43513 2.1328 9.99846 2.1328ZM9.99846 0.403076C7.39123 0.403076 7.06431 0.414127 6.04037 0.460847C5.01856 0.507452 4.3207 0.66975 3.71007 0.907043C3.07879 1.15238 2.54342 1.48063 2.00969 2.01432C1.476 2.54805 1.14774 3.08342 0.902444 3.7147C0.665112 4.32533 0.502813 5.02318 0.456208 6.04499C0.409489 7.06893 0.398438 7.39585 0.398438 10.003C0.398438 12.6102 0.409489 12.9372 0.456208 13.9611C0.502813 14.9829 0.665112 15.6808 0.902444 16.2914C1.14774 16.9227 1.476 17.458 2.00969 17.9918C2.54342 18.5255 3.07879 18.8537 3.71007 19.099C4.3207 19.3363 5.01856 19.4986 6.04037 19.5452C7.06431 19.592 7.39123 19.603 9.99846 19.603C12.6056 19.603 12.9326 19.592 13.9565 19.5452C14.9783 19.4986 15.6762 19.3363 16.2868 19.099C16.9181 18.8537 17.4535 18.5255 17.9872 17.9918C18.5209 17.458 18.8491 16.9227 19.0945 16.2914C19.3318 15.6808 19.4941 14.9829 19.5407 13.9611C19.5874 12.9372 19.5984 12.6102 19.5984 10.003C19.5984 7.39585 19.5874 7.06893 19.5407 6.04499C19.4941 5.02318 19.3318 4.32533 19.0945 3.7147C18.8491 3.08342 18.5209 2.54805 17.9872 2.01432C17.4535 1.48063 16.9181 1.15238 16.2868 0.907043C15.6762 0.66975 14.9783 0.507452 13.9565 0.460847C12.9326 0.414127 12.6056 0.403076 9.99846 0.403076Z" fill="#E31E24"/>
<path d="M10.004 5.07349C7.28131 5.07349 5.07422 7.28058 5.07422 10.0032C5.07422 12.7258 7.28131 14.9329 10.004 14.9329C12.7266 14.9329 14.9337 12.7258 14.9337 10.0032C14.9337 7.28058 12.7266 5.07349 10.004 5.07349ZM10.004 13.2032C8.23663 13.2032 6.80395 11.7705 6.80395 10.0032C6.80395 8.23588 8.23663 6.80321 10.004 6.80321C11.7713 6.80321 13.2039 8.23588 13.2039 10.0032C13.2039 11.7705 11.7713 13.2032 10.004 13.2032Z" fill="#E31E24"/>
<path d="M16.2806 4.87687C16.2806 5.51307 15.7648 6.02885 15.1285 6.02885C14.4923 6.02885 13.9766 5.51307 13.9766 4.87687C13.9766 4.24063 14.4923 3.72485 15.1285 3.72485C15.7648 3.72485 16.2806 4.24063 16.2806 4.87687Z" fill="#E31E24"/>
</svg>
