<svg width="72" height="72" viewBox="0 0 72 72" fill="none" xmlns="http://www.w3.org/2000/svg">
<g filter="url(#filter0_d_1392_5400)">
<circle cx="36" cy="21" r="16" fill="white"/>
</g>
<path d="M35.9985 13.1328C38.5617 13.1328 38.8654 13.1426 39.8777 13.1888C40.8137 13.2315 41.322 13.3878 41.6602 13.5193C42.1083 13.6935 42.4281 13.9015 42.7641 14.2374C43.1 14.5734 43.308 14.8932 43.4822 15.3413C43.6137 15.6795 43.7701 16.1878 43.8127 17.1238C43.8589 18.1361 43.8687 18.4397 43.8687 21.003C43.8687 23.5663 43.8589 23.87 43.8127 24.8823C43.7701 25.8182 43.6137 26.3265 43.4822 26.6648C43.308 27.1129 43.1 27.4327 42.7641 27.7686C42.4281 28.1046 42.1083 28.3126 41.6602 28.4868C41.322 28.6182 40.8137 28.7746 39.8777 28.8173C38.8655 28.8635 38.5619 28.8733 35.9985 28.8733C33.4349 28.8733 33.1314 28.8635 32.1192 28.8173C31.1832 28.7746 30.6749 28.6182 30.3366 28.4868C29.8885 28.3126 29.5687 28.1046 29.2328 27.7686C28.8969 27.4327 28.6888 27.1129 28.5147 26.6648C28.3832 26.3265 28.2268 25.8182 28.1841 24.8823C28.138 23.87 28.1282 23.5663 28.1282 21.003C28.1282 18.4397 28.138 18.1361 28.1841 17.1238C28.2268 16.1878 28.3832 15.6795 28.5147 15.3413C28.6888 14.8932 28.8969 14.5734 29.2328 14.2374C29.5687 13.9015 29.8885 13.6935 30.3366 13.5193C30.6749 13.3878 31.1832 13.2315 32.1192 13.1888C33.1315 13.1426 33.4351 13.1328 35.9985 13.1328ZM35.9985 11.4031C33.3912 11.4031 33.0643 11.4141 32.0404 11.4608C31.0186 11.5075 30.3207 11.6697 29.7101 11.907C29.0788 12.1524 28.5434 12.4806 28.0097 13.0143C27.476 13.548 27.1477 14.0834 26.9024 14.7147C26.6651 15.3253 26.5028 16.0232 26.4562 17.045C26.4095 18.0689 26.3984 18.3958 26.3984 21.003C26.3984 23.6102 26.4095 23.9372 26.4562 24.9611C26.5028 25.9829 26.6651 26.6808 26.9024 27.2914C27.1477 27.9227 27.476 28.458 28.0097 28.9918C28.5434 29.5255 29.0788 29.8537 29.7101 30.099C30.3207 30.3363 31.0186 30.4986 32.0404 30.5452C33.0643 30.592 33.3912 30.603 35.9985 30.603C38.6056 30.603 38.9326 30.592 39.9565 30.5452C40.9783 30.4986 41.6762 30.3363 42.2868 30.099C42.9181 29.8537 43.4535 29.5255 43.9872 28.9918C44.5209 28.458 44.8491 27.9227 45.0945 27.2914C45.3318 26.6808 45.4941 25.9829 45.5407 24.9611C45.5874 23.9372 45.5984 23.6102 45.5984 21.003C45.5984 18.3958 45.5874 18.0689 45.5407 17.045C45.4941 16.0232 45.3318 15.3253 45.0945 14.7147C44.8491 14.0834 44.5209 13.548 43.9872 13.0143C43.4535 12.4806 42.9181 12.1524 42.2868 11.907C41.6762 11.6697 40.9783 11.5075 39.9565 11.4608C38.9326 11.4141 38.6056 11.4031 35.9985 11.4031Z" fill="#E31E24"/>
<path d="M36.004 16.0735C33.2813 16.0735 31.0742 18.2806 31.0742 21.0032C31.0742 23.7258 33.2813 25.9329 36.004 25.9329C38.7266 25.9329 40.9337 23.7258 40.9337 21.0032C40.9337 18.2806 38.7266 16.0735 36.004 16.0735ZM36.004 24.2032C34.2366 24.2032 32.8039 22.7705 32.8039 21.0032C32.8039 19.2359 34.2366 17.8032 36.004 17.8032C37.7713 17.8032 39.2039 19.2359 39.2039 21.0032C39.2039 22.7705 37.7713 24.2032 36.004 24.2032Z" fill="#E31E24"/>
<path d="M42.2806 15.8769C42.2806 16.5131 41.7648 17.0289 41.1285 17.0289C40.4923 17.0289 39.9766 16.5131 39.9766 15.8769C39.9766 15.2406 40.4923 14.7249 41.1285 14.7249C41.7648 14.7249 42.2806 15.2406 42.2806 15.8769Z" fill="#E31E24"/>
<defs>
<filter id="filter0_d_1392_5400" x="0" y="0" width="72" height="72" filterUnits="userSpaceOnUse" color-interpolation-filters="sRGB">
<feFlood flood-opacity="0" result="BackgroundImageFix"/>
<feColorMatrix in="SourceAlpha" type="matrix" values="0 0 0 0 0 0 0 0 0 0 0 0 0 0 0 0 0 0 127 0" result="hardAlpha"/>
<feOffset dy="15"/>
<feGaussianBlur stdDeviation="10"/>
<feComposite in2="hardAlpha" operator="out"/>
<feColorMatrix type="matrix" values="0 0 0 0 0 0 0 0 0 0 0 0 0 0 0 0 0 0 0.07 0"/>
<feBlend mode="normal" in2="BackgroundImageFix" result="effect1_dropShadow_1392_5400"/>
<feBlend mode="normal" in="SourceGraphic" in2="effect1_dropShadow_1392_5400" result="shape"/>
</filter>
</defs>
</svg>
