<svg width="20" height="20" viewBox="0 0 20 20" fill="none" xmlns="http://www.w3.org/2000/svg">
<path d="M10.0042 0.181641H9.99932C4.58582 0.181641 0.183594 4.58509 0.183594 9.99982C0.183594 11.9629 0.761858 13.7947 1.76001 15.3294C1.93657 15.6009 1.99155 15.9369 1.88855 16.2439L1.45703 17.5303C1.19647 18.307 1.92925 19.0503 2.7096 18.8008L4.14612 18.3416C4.43495 18.2493 4.74851 18.2957 5.00917 18.4506C6.47439 19.3216 8.1788 19.818 10.0042 19.818C15.4177 19.818 19.82 15.4133 19.82 9.99982C19.82 4.58632 15.4177 0.181641 10.0042 0.181641ZM15.7172 14.0461C15.4803 14.715 14.5402 15.2697 13.7904 15.4317C13.2774 15.541 12.6073 15.6281 10.3515 14.6929C7.46623 13.4975 5.60814 10.5656 5.46332 10.3754C5.32464 10.1851 4.29741 8.82287 4.29741 7.41396C4.29741 6.00505 5.01291 5.319 5.30132 5.02446C5.53818 4.78269 5.92968 4.67223 6.30523 4.67223C6.42673 4.67223 6.53596 4.67837 6.63414 4.68328C6.92255 4.69555 7.06737 4.71273 7.25759 5.16805C7.49446 5.73873 8.07127 7.14764 8.14 7.29246C8.20996 7.43728 8.27991 7.63364 8.18173 7.82387C8.08968 8.02023 8.00868 8.10737 7.86387 8.27428C7.71905 8.44118 7.58159 8.56882 7.43677 8.748C7.30423 8.90387 7.1545 9.07078 7.32141 9.35919C7.48832 9.64146 8.06514 10.5828 8.91441 11.3388C10.0104 12.3145 10.8989 12.6262 11.2168 12.7587C11.4536 12.8569 11.7359 12.8336 11.909 12.6495C12.1286 12.4126 12.3999 12.0199 12.676 11.6333C12.8724 11.356 13.1203 11.3216 13.3805 11.4198C13.6455 11.5118 15.0483 12.2052 15.3367 12.3488C15.6251 12.4936 15.8154 12.5624 15.8853 12.6839C15.954 12.8054 15.954 13.376 15.7172 14.0461Z" fill="#E31E24"/>
</svg>
