<svg width="19" height="16" viewBox="0 0 19 16" fill="none" xmlns="http://www.w3.org/2000/svg">
<path d="M0.865431 7.87038C2.66596 6.83619 4.67584 5.97299 6.55377 5.10541C9.78454 3.68438 13.0281 2.28797 16.3045 0.987934C16.9419 0.766433 18.0873 0.549845 18.1996 1.5349C18.1381 2.9293 17.8851 4.31554 17.7116 5.70177C17.2712 8.75022 16.7621 11.7882 16.2657 14.8267C16.0947 15.8388 14.8789 16.3627 14.1009 15.715C12.2313 14.3981 10.3474 13.094 8.50164 11.7466C7.89704 11.106 8.45769 10.186 8.99766 9.72849C10.5375 8.14603 12.1705 6.80156 13.6299 5.13733C14.0236 4.14606 12.8604 4.98147 12.4768 5.23747C10.3687 6.75233 8.31223 8.35967 6.08967 9.69103C4.95439 10.3427 3.6312 9.7858 2.49644 9.42217C1.479 8.98288 -0.0119637 8.5403 0.865328 7.87051L0.865431 7.87038Z" fill="#E31E24"/>
</svg>
