<svg width="32" height="32" viewBox="0 0 32 32" fill="none" xmlns="http://www.w3.org/2000/svg">
<path d="M17.5 22V20.5H14.5V22H17.5ZM14.5 22.02V23.52H17.5V22.02H14.5ZM14.5 9V17H17.5V9H14.5ZM14.5 22V22.02H17.5V22H14.5ZM16 28.5C9.09644 28.5 3.5 22.9036 3.5 16H0.5C0.5 24.5604 7.43959 31.5 16 31.5V28.5ZM28.5 16C28.5 22.9036 22.9036 28.5 16 28.5V31.5C24.5604 31.5 31.5 24.5604 31.5 16H28.5ZM16 3.5C22.9036 3.5 28.5 9.09644 28.5 16H31.5C31.5 7.43959 24.5604 0.5 16 0.5V3.5ZM16 0.5C7.43959 0.5 0.5 7.43959 0.5 16H3.5C3.5 9.09644 9.09644 3.5 16 3.5V0.5Z" fill="#E31E24"/>
</svg>
