<svg width="291" height="34" viewBox="0 0 291 34" fill="none" xmlns="http://www.w3.org/2000/svg">
<path d="M0 0H291L281 17L291 34H0V0Z" fill="#E31E24"/>
<path d="M51.3864 17.1818C51.3864 18.4242 51.1591 19.4924 50.7045 20.3864C50.25 21.2765 49.6269 21.9621 48.8352 22.4432C48.0473 22.9205 47.1515 23.1591 46.1477 23.1591C45.1402 23.1591 44.2405 22.9205 43.4489 22.4432C42.661 21.9621 42.0398 21.2746 41.5852 20.3807C41.1307 19.4867 40.9034 18.4205 40.9034 17.1818C40.9034 15.9394 41.1307 14.8731 41.5852 13.983C42.0398 13.089 42.661 12.4034 43.4489 11.9261C44.2405 11.4451 45.1402 11.2045 46.1477 11.2045C47.1515 11.2045 48.0473 11.4451 48.8352 11.9261C49.6269 12.4034 50.25 13.089 50.7045 13.983C51.1591 14.8731 51.3864 15.9394 51.3864 17.1818ZM49.6477 17.1818C49.6477 16.2348 49.4943 15.4375 49.1875 14.7898C48.8845 14.1383 48.4678 13.6458 47.9375 13.3125C47.411 12.9754 46.8144 12.8068 46.1477 12.8068C45.4773 12.8068 44.8788 12.9754 44.3523 13.3125C43.8258 13.6458 43.4091 14.1383 43.1023 14.7898C42.7992 15.4375 42.6477 16.2348 42.6477 17.1818C42.6477 18.1288 42.7992 18.928 43.1023 19.5795C43.4091 20.2273 43.8258 20.7197 44.3523 21.0568C44.8788 21.3902 45.4773 21.5568 46.1477 21.5568C46.8144 21.5568 47.411 21.3902 47.9375 21.0568C48.4678 20.7197 48.8845 20.2273 49.1875 19.5795C49.4943 18.928 49.6477 18.1288 49.6477 17.1818ZM53.4389 23V14.2727H60.5582V23H58.8935V15.7386H55.0923V23H53.4389ZM61.7472 15.7386V14.2727H69.1108V15.7386H66.2642V23H64.6051V15.7386H61.7472ZM72.5724 20.6193L76.419 14.2727H78.2486V23H76.5838V16.6477L72.7543 23H70.9077V14.2727H72.5724V20.6193ZM85.4304 20.8977L88.2486 14.2727H89.7145L86.0611 23H84.7997L81.2202 14.2727H82.669L85.4304 20.8977ZM82.1974 14.2727V23H80.5327V14.2727H82.1974ZM88.7088 23V14.2727H90.3622V23H88.7088ZM95.1662 23.1932C94.6132 23.1932 94.1132 23.0909 93.6662 22.8864C93.2192 22.678 92.8651 22.3769 92.6037 21.983C92.3461 21.589 92.2173 21.1061 92.2173 20.5341C92.2173 20.0417 92.312 19.6364 92.5014 19.3182C92.6908 19 92.9465 18.7481 93.2685 18.5625C93.5904 18.3769 93.9503 18.2367 94.348 18.142C94.7457 18.0473 95.151 17.9754 95.5639 17.9261C96.0866 17.8655 96.5109 17.8163 96.8366 17.7784C97.1624 17.7367 97.3991 17.6705 97.5469 17.5795C97.6946 17.4886 97.7685 17.3409 97.7685 17.1364V17.0966C97.7685 16.6004 97.6283 16.2159 97.348 15.9432C97.0715 15.6705 96.6586 15.5341 96.1094 15.5341C95.5374 15.5341 95.0866 15.661 94.7571 15.9148C94.4313 16.1648 94.206 16.4432 94.081 16.75L92.4844 16.3864C92.6738 15.8561 92.9503 15.428 93.3139 15.1023C93.6813 14.7727 94.1037 14.5341 94.581 14.3864C95.0582 14.2348 95.5601 14.1591 96.0866 14.1591C96.4351 14.1591 96.8045 14.2008 97.1946 14.2841C97.5885 14.3636 97.956 14.5114 98.2969 14.7273C98.6416 14.9432 98.9238 15.2519 99.1435 15.6534C99.3632 16.0511 99.473 16.5682 99.473 17.2045V23H97.8139V21.8068H97.7457C97.6359 22.0265 97.4711 22.2424 97.2514 22.4545C97.0317 22.6667 96.7495 22.8428 96.4048 22.983C96.0601 23.1231 95.6473 23.1932 95.1662 23.1932ZM95.5355 21.8295C96.0052 21.8295 96.4067 21.7367 96.7401 21.5511C97.0772 21.3655 97.3329 21.1231 97.5071 20.8239C97.6851 20.5208 97.7741 20.197 97.7741 19.8523V18.7273C97.7135 18.7879 97.5961 18.8447 97.4219 18.8977C97.2514 18.947 97.0563 18.9905 96.8366 19.0284C96.617 19.0625 96.4029 19.0947 96.1946 19.125C95.9863 19.1515 95.812 19.1742 95.6719 19.1932C95.3423 19.2348 95.0412 19.3049 94.7685 19.4034C94.4995 19.5019 94.2836 19.6439 94.1207 19.8295C93.9616 20.0114 93.8821 20.2538 93.8821 20.5568C93.8821 20.9773 94.0374 21.2955 94.348 21.5114C94.6586 21.7235 95.0545 21.8295 95.5355 21.8295ZM101.048 23L101.043 21.5284H101.355C101.598 21.5284 101.8 21.4773 101.963 21.375C102.13 21.2689 102.266 21.0909 102.372 20.8409C102.478 20.5909 102.56 20.2462 102.616 19.8068C102.673 19.3636 102.715 18.8068 102.741 18.1364L102.895 14.2727H108.986V23H107.321V15.7386H104.469L104.332 18.7045C104.298 19.4242 104.224 20.053 104.111 20.5909C104.001 21.1288 103.84 21.5777 103.628 21.9375C103.416 22.2936 103.143 22.5606 102.81 22.7386C102.476 22.9129 102.071 23 101.594 23H101.048ZM112.53 17.2727H115.064C116.132 17.2727 116.954 17.5379 117.53 18.0682C118.106 18.5985 118.393 19.2822 118.393 20.1193C118.393 20.6648 118.265 21.1553 118.007 21.5909C117.75 22.0265 117.373 22.3712 116.876 22.625C116.38 22.875 115.776 23 115.064 23H111.251V14.2727H112.916V21.5341H115.064C115.553 21.5341 115.954 21.4072 116.268 21.1534C116.583 20.8958 116.74 20.5682 116.74 20.1705C116.74 19.75 116.583 19.4072 116.268 19.142C115.954 18.8731 115.553 18.7386 115.064 18.7386H112.53V17.2727ZM126.213 17.9034V19.375H121.486V17.9034H126.213ZM121.963 14.2727V23H120.298V14.2727H121.963ZM127.401 14.2727V23H125.741V14.2727H127.401ZM130.952 17.2727H133.486C134.554 17.2727 135.376 17.5379 135.952 18.0682C136.527 18.5985 136.815 19.2822 136.815 20.1193C136.815 20.6648 136.687 21.1553 136.429 21.5909C136.171 22.0265 135.795 22.3712 135.298 22.625C134.802 22.875 134.198 23 133.486 23H129.673V14.2727H131.338V21.5341H133.486C133.974 21.5341 134.376 21.4072 134.69 21.1534C135.005 20.8958 135.162 20.5682 135.162 20.1705C135.162 19.75 135.005 19.4072 134.69 19.142C134.376 18.8731 133.974 18.7386 133.486 18.7386H130.952V17.2727ZM138.054 23V14.2727H139.753V23H138.054ZM143.697 20.6193L147.544 14.2727H149.374V23H147.709V16.6477L143.879 23H142.033V14.2727H143.697V20.6193ZM146.817 11.3182H148.214C148.214 11.9583 147.987 12.4792 147.533 12.8807C147.082 13.2784 146.472 13.4773 145.703 13.4773C144.938 13.4773 144.33 13.2784 143.879 12.8807C143.429 12.4792 143.203 11.9583 143.203 11.3182H144.595C144.595 11.6023 144.679 11.8542 144.845 12.0739C145.012 12.2898 145.298 12.3977 145.703 12.3977C146.101 12.3977 146.385 12.2898 146.555 12.0739C146.73 11.858 146.817 11.6061 146.817 11.3182ZM155.892 23V14.2727H159.511C160.496 14.2727 161.277 14.483 161.852 14.9034C162.428 15.3201 162.716 15.8864 162.716 16.6023C162.716 17.1136 162.553 17.5189 162.227 17.8182C161.902 18.1174 161.47 18.3182 160.932 18.4205C161.322 18.4659 161.68 18.5833 162.006 18.7727C162.331 18.9583 162.593 19.2083 162.79 19.5227C162.991 19.8371 163.091 20.2121 163.091 20.6477C163.091 21.1098 162.972 21.5189 162.733 21.875C162.494 22.2273 162.148 22.5038 161.693 22.7045C161.242 22.9015 160.699 23 160.062 23H155.892ZM157.489 21.5795H160.062C160.483 21.5795 160.813 21.4792 161.051 21.2784C161.29 21.0777 161.409 20.8049 161.409 20.4602C161.409 20.0549 161.29 19.7367 161.051 19.5057C160.813 19.2708 160.483 19.1534 160.062 19.1534H157.489V21.5795ZM157.489 17.9091H159.528C159.847 17.9091 160.119 17.8636 160.347 17.7727C160.578 17.6818 160.754 17.553 160.875 17.3864C161 17.2159 161.062 17.0152 161.062 16.7841C161.062 16.447 160.924 16.1837 160.648 15.9943C160.371 15.8049 159.992 15.7102 159.511 15.7102H157.489V17.9091ZM167.494 23.1932C166.941 23.1932 166.441 23.0909 165.994 22.8864C165.547 22.678 165.193 22.3769 164.932 21.983C164.674 21.589 164.545 21.1061 164.545 20.5341C164.545 20.0417 164.64 19.6364 164.83 19.3182C165.019 19 165.275 18.7481 165.597 18.5625C165.919 18.3769 166.278 18.2367 166.676 18.142C167.074 18.0473 167.479 17.9754 167.892 17.9261C168.415 17.8655 168.839 17.8163 169.165 17.7784C169.491 17.7367 169.727 17.6705 169.875 17.5795C170.023 17.4886 170.097 17.3409 170.097 17.1364V17.0966C170.097 16.6004 169.956 16.2159 169.676 15.9432C169.4 15.6705 168.987 15.5341 168.438 15.5341C167.866 15.5341 167.415 15.661 167.085 15.9148C166.759 16.1648 166.534 16.4432 166.409 16.75L164.812 16.3864C165.002 15.8561 165.278 15.428 165.642 15.1023C166.009 14.7727 166.432 14.5341 166.909 14.3864C167.386 14.2348 167.888 14.1591 168.415 14.1591C168.763 14.1591 169.133 14.2008 169.523 14.2841C169.917 14.3636 170.284 14.5114 170.625 14.7273C170.97 14.9432 171.252 15.2519 171.472 15.6534C171.691 16.0511 171.801 16.5682 171.801 17.2045V23H170.142V21.8068H170.074C169.964 22.0265 169.799 22.2424 169.58 22.4545C169.36 22.6667 169.078 22.8428 168.733 22.983C168.388 23.1231 167.975 23.1932 167.494 23.1932ZM167.864 21.8295C168.333 21.8295 168.735 21.7367 169.068 21.5511C169.405 21.3655 169.661 21.1231 169.835 20.8239C170.013 20.5208 170.102 20.197 170.102 19.8523V18.7273C170.042 18.7879 169.924 18.8447 169.75 18.8977C169.58 18.947 169.384 18.9905 169.165 19.0284C168.945 19.0625 168.731 19.0947 168.523 19.125C168.314 19.1515 168.14 19.1742 168 19.1932C167.67 19.2348 167.369 19.3049 167.097 19.4034C166.828 19.5019 166.612 19.6439 166.449 19.8295C166.29 20.0114 166.21 20.2538 166.21 20.5568C166.21 20.9773 166.366 21.2955 166.676 21.5114C166.987 21.7235 167.383 21.8295 167.864 21.8295ZM174.064 26.2727V14.2727H175.723V15.6875H175.865C175.964 15.5057 176.106 15.2955 176.291 15.0568C176.477 14.8182 176.734 14.6098 177.064 14.4318C177.393 14.25 177.829 14.1591 178.371 14.1591C179.075 14.1591 179.704 14.3371 180.257 14.6932C180.81 15.0492 181.244 15.5625 181.558 16.233C181.876 16.9034 182.036 17.7102 182.036 18.6534C182.036 19.5966 181.878 20.4053 181.564 21.0795C181.25 21.75 180.818 22.267 180.268 22.6307C179.719 22.9905 179.092 23.1705 178.388 23.1705C177.857 23.1705 177.424 23.0814 177.087 22.9034C176.753 22.7254 176.492 22.517 176.303 22.2784C176.113 22.0398 175.967 21.8277 175.865 21.642H175.763V26.2727H174.064ZM175.729 18.6364C175.729 19.25 175.818 19.7879 175.996 20.25C176.174 20.7121 176.431 21.0739 176.768 21.3352C177.106 21.5928 177.518 21.7216 178.007 21.7216C178.515 21.7216 178.939 21.5871 179.28 21.3182C179.621 21.0455 179.878 20.6761 180.053 20.2102C180.231 19.7443 180.32 19.2197 180.32 18.6364C180.32 18.0606 180.232 17.5436 180.058 17.0852C179.888 16.6269 179.63 16.2652 179.286 16C178.945 15.7348 178.518 15.6023 178.007 15.6023C177.515 15.6023 177.098 15.7292 176.757 15.983C176.42 16.2367 176.164 16.5909 175.99 17.0455C175.816 17.5 175.729 18.0303 175.729 18.6364ZM185.604 20.6193L189.45 14.2727H191.28V23H189.615V16.6477L185.786 23H183.939V14.2727H185.604V20.6193ZM196.104 23.1932C195.551 23.1932 195.051 23.0909 194.604 22.8864C194.157 22.678 193.803 22.3769 193.541 21.983C193.284 21.589 193.155 21.1061 193.155 20.5341C193.155 20.0417 193.25 19.6364 193.439 19.3182C193.628 19 193.884 18.7481 194.206 18.5625C194.528 18.3769 194.888 18.2367 195.286 18.142C195.683 18.0473 196.089 17.9754 196.501 17.9261C197.024 17.8655 197.448 17.8163 197.774 17.7784C198.1 17.7367 198.337 17.6705 198.484 17.5795C198.632 17.4886 198.706 17.3409 198.706 17.1364V17.0966C198.706 16.6004 198.566 16.2159 198.286 15.9432C198.009 15.6705 197.596 15.5341 197.047 15.5341C196.475 15.5341 196.024 15.661 195.695 15.9148C195.369 16.1648 195.143 16.4432 195.018 16.75L193.422 16.3864C193.611 15.8561 193.888 15.428 194.251 15.1023C194.619 14.7727 195.041 14.5341 195.518 14.3864C195.996 14.2348 196.498 14.1591 197.024 14.1591C197.373 14.1591 197.742 14.2008 198.132 14.2841C198.526 14.3636 198.893 14.5114 199.234 14.7273C199.579 14.9432 199.861 15.2519 200.081 15.6534C200.301 16.0511 200.411 16.5682 200.411 17.2045V23H198.751V21.8068H198.683C198.573 22.0265 198.409 22.2424 198.189 22.4545C197.969 22.6667 197.687 22.8428 197.342 22.983C196.998 23.1231 196.585 23.1932 196.104 23.1932ZM196.473 21.8295C196.943 21.8295 197.344 21.7367 197.678 21.5511C198.015 21.3655 198.27 21.1231 198.445 20.8239C198.623 20.5208 198.712 20.197 198.712 19.8523V18.7273C198.651 18.7879 198.534 18.8447 198.359 18.8977C198.189 18.947 197.994 18.9905 197.774 19.0284C197.554 19.0625 197.34 19.0947 197.132 19.125C196.924 19.1515 196.75 19.1742 196.609 19.1932C196.28 19.2348 195.979 19.3049 195.706 19.4034C195.437 19.5019 195.221 19.6439 195.058 19.8295C194.899 20.0114 194.82 20.2538 194.82 20.5568C194.82 20.9773 194.975 21.2955 195.286 21.5114C195.596 21.7235 195.992 21.8295 196.473 21.8295ZM208.588 17.9034V19.375H203.861V17.9034H208.588ZM204.338 14.2727V23H202.673V14.2727H204.338ZM209.776 14.2727V23H208.116V14.2727H209.776ZM210.966 15.7386V14.2727H218.33V15.7386H215.483V23H213.824V15.7386H210.966ZM224.338 23V21.7273L228.276 17.6477C228.696 17.2045 229.043 16.8163 229.315 16.483C229.592 16.1458 229.798 15.8258 229.935 15.5227C230.071 15.2197 230.139 14.8977 230.139 14.5568C230.139 14.1705 230.048 13.8371 229.866 13.5568C229.685 13.2727 229.437 13.0549 229.122 12.9034C228.808 12.7481 228.454 12.6705 228.06 12.6705C227.643 12.6705 227.279 12.7557 226.969 12.9261C226.658 13.0966 226.42 13.3371 226.253 13.6477C226.086 13.9583 226.003 14.322 226.003 14.7386H224.327C224.327 14.0303 224.49 13.411 224.815 12.8807C225.141 12.3504 225.588 11.9394 226.156 11.6477C226.724 11.3523 227.37 11.2045 228.094 11.2045C228.825 11.2045 229.469 11.3504 230.026 11.642C230.586 11.9299 231.024 12.3239 231.338 12.8239C231.652 13.3201 231.81 13.8807 231.81 14.5057C231.81 14.9375 231.728 15.3598 231.565 15.7727C231.406 16.1856 231.128 16.6458 230.73 17.1534C230.332 17.6572 229.779 18.2689 229.071 18.9886L226.759 21.4091V21.4943H231.997V23H224.338ZM238.202 23.1932C237.304 23.1894 236.537 22.9527 235.901 22.483C235.264 22.0133 234.777 21.3295 234.44 20.4318C234.103 19.5341 233.935 18.4527 233.935 17.1875C233.935 15.9261 234.103 14.8485 234.44 13.9545C234.781 13.0606 235.27 12.3788 235.906 11.9091C236.546 11.4394 237.312 11.2045 238.202 11.2045C239.092 11.2045 239.855 11.4413 240.491 11.9148C241.128 12.3845 241.615 13.0663 241.952 13.9602C242.293 14.8504 242.463 15.9261 242.463 17.1875C242.463 18.4564 242.295 19.5398 241.957 20.4375C241.62 21.3314 241.134 22.0152 240.497 22.4886C239.861 22.9583 239.096 23.1932 238.202 23.1932ZM238.202 21.6761C238.99 21.6761 239.605 21.2917 240.048 20.5227C240.495 19.7538 240.719 18.642 240.719 17.1875C240.719 16.2216 240.616 15.4053 240.412 14.7386C240.211 14.0682 239.921 13.5606 239.543 13.2159C239.168 12.8674 238.721 12.6932 238.202 12.6932C237.418 12.6932 236.802 13.0795 236.355 13.8523C235.908 14.625 235.683 15.7367 235.679 17.1875C235.679 18.1572 235.779 18.9773 235.98 19.6477C236.185 20.3144 236.474 20.8201 236.849 21.1648C237.224 21.5057 237.675 21.6761 238.202 21.6761ZM244.479 23V21.7273L248.416 17.6477C248.837 17.2045 249.183 16.8163 249.456 16.483C249.732 16.1458 249.939 15.8258 250.075 15.5227C250.212 15.2197 250.28 14.8977 250.28 14.5568C250.28 14.1705 250.189 13.8371 250.007 13.5568C249.825 13.2727 249.577 13.0549 249.263 12.9034C248.948 12.7481 248.594 12.6705 248.2 12.6705C247.784 12.6705 247.42 12.7557 247.109 12.9261C246.799 13.0966 246.56 13.3371 246.393 13.6477C246.227 13.9583 246.143 14.322 246.143 14.7386H244.467C244.467 14.0303 244.63 13.411 244.956 12.8807C245.282 12.3504 245.729 11.9394 246.297 11.6477C246.865 11.3523 247.511 11.2045 248.234 11.2045C248.965 11.2045 249.609 11.3504 250.166 11.642C250.727 11.9299 251.164 12.3239 251.479 12.8239C251.793 13.3201 251.95 13.8807 251.95 14.5057C251.95 14.9375 251.869 15.3598 251.706 15.7727C251.547 16.1856 251.268 16.6458 250.871 17.1534C250.473 17.6572 249.92 18.2689 249.212 18.9886L246.899 21.4091V21.4943H252.138V23H244.479ZM258.342 23.1591C257.562 23.1591 256.865 23.0246 256.251 22.7557C255.642 22.4867 255.159 22.1136 254.803 21.6364C254.45 21.1553 254.261 20.5985 254.234 19.9659H256.018C256.041 20.3106 256.157 20.6098 256.365 20.8636C256.577 21.1136 256.854 21.3068 257.195 21.4432C257.536 21.5795 257.914 21.6477 258.331 21.6477C258.789 21.6477 259.195 21.5682 259.547 21.4091C259.903 21.25 260.181 21.0284 260.382 20.7443C260.583 20.4564 260.683 20.125 260.683 19.75C260.683 19.3598 260.583 19.017 260.382 18.7216C260.185 18.4223 259.895 18.1875 259.513 18.017C259.134 17.8466 258.676 17.7614 258.138 17.7614H257.155V16.3295H258.138C258.57 16.3295 258.948 16.2519 259.274 16.0966C259.604 15.9413 259.861 15.7254 260.047 15.4489C260.232 15.1686 260.325 14.8409 260.325 14.4659C260.325 14.1061 260.244 13.7936 260.081 13.5284C259.922 13.2595 259.695 13.0492 259.399 12.8977C259.107 12.7462 258.763 12.6705 258.365 12.6705C257.986 12.6705 257.632 12.7405 257.303 12.8807C256.977 13.017 256.712 13.214 256.507 13.4716C256.303 13.7254 256.193 14.0303 256.178 14.3864H254.479C254.498 13.7576 254.683 13.2045 255.036 12.7273C255.392 12.25 255.861 11.8769 256.445 11.608C257.028 11.339 257.676 11.2045 258.388 11.2045C259.134 11.2045 259.778 11.3504 260.32 11.642C260.865 11.9299 261.286 12.3144 261.581 12.7955C261.88 13.2765 262.028 13.803 262.024 14.375C262.028 15.0265 261.846 15.5795 261.479 16.0341C261.115 16.4886 260.63 16.7936 260.024 16.9489V17.0398C260.797 17.1572 261.395 17.464 261.82 17.9602C262.248 18.4564 262.46 19.072 262.456 19.8068C262.46 20.447 262.282 21.0208 261.922 21.5284C261.566 22.036 261.079 22.4356 260.462 22.7273C259.844 23.0152 259.138 23.1591 258.342 23.1591Z" fill="white"/>
</svg>
