<svg width="70" height="70" viewBox="0 0 70 70" fill="none" xmlns="http://www.w3.org/2000/svg">
<rect width="70" height="70" rx="12" fill="white"/>
<g clip-path="url(#clip0_270_1877)">
<path d="M34.9833 41.2195C35.4226 41.9546 36.0872 42.5285 36.8783 42.8562C37.6695 43.1839 38.5452 43.248 39.3757 43.0388C39.7481 42.9448 40.1047 42.7968 40.4342 42.5995C41.0017 42.2608 41.4761 41.7863 41.8148 41.2188C42.0122 40.8893 42.1602 40.5327 42.2542 40.1603C42.4642 39.3298 42.4005 38.4537 42.0726 37.6623C41.7447 36.8709 41.1701 36.2065 40.4342 35.7679C40.1047 35.5706 39.7481 35.4226 39.3757 35.3286C38.6131 35.1352 37.8103 35.1723 37.0689 35.4352C36.3274 35.6982 35.6806 36.1752 35.2104 36.8059C34.7401 37.4366 34.4676 38.1926 34.4271 38.9782C34.3867 39.7639 34.5803 40.5439 34.9833 41.2195Z" fill="#E31E24"/>
<path d="M49.6974 37.4091H48.9163C48.6505 35.8207 48.0265 34.3137 47.0915 33.0025L47.6444 32.4496C47.9764 32.1165 48.1627 31.6652 48.1623 31.1948C48.1619 30.7244 47.9749 30.2734 47.6423 29.9408C47.3097 29.6083 46.8587 29.4212 46.3884 29.4208C45.918 29.4205 45.4667 29.6067 45.1336 29.9388L44.5807 30.4917C43.27 29.5568 41.7634 28.9332 40.1754 28.6682V27.8858C40.1754 27.5263 40.0663 27.1753 39.8625 26.8793C39.6587 26.5832 39.3698 26.3559 39.034 26.2275C38.6983 26.0992 38.3314 26.0757 37.9821 26.1604C37.6327 26.245 37.3173 26.4336 37.0775 26.7014C37.2981 27.0944 37.4134 27.5378 37.4122 27.9885C37.4115 28.5934 37.2041 29.1798 36.8245 29.6507C36.4449 30.1216 35.9159 30.4487 35.325 30.5779C35.1547 31.1411 34.9292 31.6861 34.6516 32.2049C34.7766 32.4 34.8755 32.6106 34.9458 32.8313C35.4755 32.5421 36.0396 32.321 36.6248 32.1732C37.7902 31.8807 39.0099 31.8807 40.1754 32.1732C40.8526 32.3441 41.5011 32.6132 42.1003 32.972C43.4374 33.7707 44.4815 34.979 45.0777 36.4179C45.6739 37.8567 45.7904 39.4494 45.4101 40.9597C45.2391 41.6369 44.97 42.2854 44.6111 42.8846C43.9951 43.9166 43.1323 44.7794 42.1003 45.3955C41.5011 45.7543 40.8526 46.0234 40.1754 46.1943C38.8571 46.5282 37.4714 46.4837 36.1773 46.0657C34.8831 45.6478 33.7331 44.8735 32.8591 43.8316C31.9851 42.7897 31.4225 41.5225 31.2361 40.1754C31.0496 38.8283 31.2467 37.456 31.8048 36.2158C31.5149 36.1471 31.2387 36.0296 30.9881 35.8684C30.4693 36.1448 29.9248 36.3703 29.3625 36.5417C29.233 37.1324 28.9058 37.6611 28.4349 38.0404C27.964 38.4198 27.3777 38.627 26.7731 38.6277C26.3458 38.6283 25.9249 38.5247 25.5468 38.3259C25.3978 38.5963 25.3218 38.9008 25.3264 39.2095C25.3309 39.5182 25.4159 39.8204 25.5728 40.0863C25.7297 40.3522 25.9532 40.5725 26.2213 40.7257C26.4894 40.8789 26.7927 40.9595 27.1015 40.9597H27.8839C28.1488 42.5479 28.7729 44.0547 29.7086 45.365L29.1557 45.9179C28.9909 46.0827 28.8601 46.2783 28.7708 46.4936C28.6816 46.709 28.6356 46.9398 28.6356 47.1729C28.6355 47.406 28.6813 47.6368 28.7705 47.8522C28.8596 48.0675 28.9903 48.2632 29.1551 48.4281C29.3199 48.593 29.5155 48.7237 29.7309 48.813C29.9462 48.9023 30.177 48.9482 30.4101 48.9483C30.6432 48.9483 30.874 48.9025 31.0894 48.8133C31.3047 48.7242 31.5004 48.5935 31.6653 48.4287L32.2182 47.8758C33.5294 48.8108 35.0364 49.4348 36.6248 49.7006V50.4817C36.6253 50.9522 36.8126 51.4032 37.1455 51.7357C37.4784 52.0681 37.9296 52.2549 38.4001 52.2549C38.8706 52.2549 39.3218 52.0681 39.6547 51.7357C39.9875 51.4032 40.1748 50.9522 40.1754 50.4817V49.6993C41.7634 49.4343 43.27 48.8107 44.5807 47.8758L45.1336 48.4287C45.4666 48.7611 45.918 48.9477 46.3886 48.9474C46.8592 48.9472 47.3104 48.7602 47.6431 48.4274C47.9758 48.0947 48.1629 47.6435 48.1631 47.1729C48.1633 46.7024 47.9768 46.251 47.6444 45.9179L47.0915 45.365C48.0264 44.0543 48.65 42.5477 48.915 40.9597H49.6974C49.9307 40.96 50.1618 40.9143 50.3775 40.8252C50.5931 40.7361 50.7891 40.6054 50.9542 40.4405C51.1193 40.2756 51.2502 40.0798 51.3396 39.8643C51.4289 39.6487 51.4749 39.4177 51.4749 39.1844C51.4749 38.9511 51.4289 38.72 51.3396 38.5045C51.2502 38.289 51.1193 38.0932 50.9542 37.9283C50.7891 37.7634 50.5931 37.6327 50.3775 37.5436C50.1618 37.4545 49.9307 37.4088 49.6974 37.4091Z" fill="#E31E24"/>
<path d="M25.5174 35.9774C25.5174 36.3103 25.6496 36.6297 25.8851 36.8651C26.1205 37.1005 26.4398 37.2328 26.7728 37.2328C27.1058 37.2328 27.4251 37.1005 27.6605 36.8651C27.896 36.6297 28.0282 36.3103 28.0282 35.9774V35.4241C29.1512 35.2367 30.2166 34.7957 31.1435 34.1346L31.5345 34.5256C31.6511 34.6421 31.7895 34.7346 31.9418 34.7977C32.0941 34.8608 32.2574 34.8933 32.4223 34.8933C32.5871 34.8933 32.7504 34.8608 32.9027 34.7977C33.055 34.7346 33.1935 34.6421 33.31 34.5256C33.4266 34.409 33.5191 34.2706 33.5822 34.1182C33.6453 33.9659 33.6778 33.8027 33.6778 33.6378C33.6778 33.4729 33.6453 33.3097 33.5822 33.1573C33.5191 33.005 33.4266 32.8666 33.31 32.75L32.919 32.359C33.5801 31.4322 34.0211 30.3667 34.2085 29.2438H34.7619C35.0948 29.2438 35.4142 29.1115 35.6496 28.876C35.885 28.6406 36.0173 28.3213 36.0173 27.9883C36.0173 27.6553 35.885 27.336 35.6496 27.1006C35.4142 26.8651 35.0948 26.7329 34.7619 26.7329H34.2094C34.0215 25.6096 33.5802 24.544 32.919 23.6167L33.31 23.2257C33.5452 22.9902 33.6773 22.671 33.6772 22.3381C33.6771 22.0053 33.5448 21.6861 33.3094 21.4508C33.0741 21.2154 32.7549 21.0831 32.4221 21.083C32.0892 21.0829 31.77 21.215 31.5345 21.4502L31.1435 21.8412C30.2166 21.1801 29.1512 20.739 28.0282 20.5516V19.9984C28.0282 19.6654 27.896 19.3461 27.6605 19.1106C27.4251 18.8752 27.1057 18.7429 26.7728 18.7429C26.4398 18.7429 26.1205 18.8752 25.8851 19.1106C25.6496 19.3461 25.5173 19.6654 25.5173 19.9984V20.5507C24.3941 20.7387 23.3284 21.18 22.4012 21.8412L22.0102 21.4502C21.8936 21.3337 21.7552 21.2412 21.6029 21.1782C21.4506 21.1152 21.2874 21.0827 21.1225 21.0828C20.9577 21.0828 20.7945 21.1153 20.6422 21.1785C20.49 21.2416 20.3516 21.3341 20.2351 21.4506C20.1186 21.5672 20.0261 21.7056 19.9631 21.8579C19.9001 22.0102 19.8676 22.1734 19.8677 22.3383C19.8677 22.5031 19.9002 22.6663 19.9633 22.8186C20.0265 22.9709 20.119 23.1092 20.2355 23.2257L20.6265 23.6167C19.9647 24.5437 19.5231 25.6095 19.3352 26.7329H18.7828C18.4498 26.7329 18.1305 26.8651 17.8951 27.1006C17.6596 27.336 17.5273 27.6554 17.5273 27.9883C17.5273 28.3213 17.6596 28.6406 17.8951 28.8761C18.1305 29.1115 18.4498 29.2438 18.7828 29.2438H19.3361C19.5234 30.3669 19.9648 31.4324 20.6265 32.359L20.2355 32.75C20.1187 32.8665 20.0259 33.0048 19.9625 33.1572C19.8991 33.3095 19.8664 33.4729 19.8663 33.6379C19.8661 33.8029 19.8984 33.9663 19.9615 34.1188C20.0245 34.2713 20.117 34.4098 20.2337 34.5265C20.3503 34.6432 20.4888 34.7358 20.6413 34.7989C20.7937 34.862 20.9571 34.8945 21.1221 34.8944C21.2871 34.8943 21.4505 34.8617 21.6029 34.7984C21.7553 34.7351 21.8937 34.6424 22.0102 34.5256L22.4012 34.1346C23.3284 34.7957 24.3941 35.237 25.5174 35.425V35.9774ZM24.693 31.4778C23.8556 30.9776 23.2261 30.1928 22.9194 29.2668C22.6128 28.3409 22.6494 27.3355 23.0227 26.4343C23.396 25.5331 24.081 24.7963 24.9526 24.3584C25.8242 23.9204 26.8242 23.8107 27.7701 24.0491C28.1506 24.1451 28.5149 24.2963 28.8516 24.4979C29.6028 24.9466 30.1894 25.6255 30.5244 26.4339C30.8593 27.2423 30.9248 28.1371 30.7111 28.9857C30.6151 29.3661 30.4639 29.7305 30.2623 30.0672C29.9161 30.647 29.4314 31.1317 28.8516 31.4778C28.5149 31.6794 28.1506 31.8306 27.7701 31.9267C27.2529 32.0578 26.7149 32.0856 26.1869 32.0086C25.6589 31.9316 25.1512 31.7512 24.693 31.4778Z" fill="#E31E24"/>
</g>
<defs>
<clipPath id="clip0_270_1877">
<rect width="35" height="35" fill="white" transform="translate(17 18)"/>
</clipPath>
</defs>
</svg>
