<svg width="26" height="28" viewBox="0 0 26 28" fill="none" xmlns="http://www.w3.org/2000/svg">
<path d="M1.875 27.4998C1.57663 27.4998 1.29048 27.3813 1.07951 27.1703C0.868527 26.9593 0.75 26.6732 0.75 26.3748V1.62481C0.750033 1.42932 0.801008 1.23721 0.8979 1.06741C0.994792 0.897624 1.13426 0.756012 1.30255 0.656536C1.47084 0.557061 1.66215 0.503155 1.85761 0.500134C2.05308 0.497113 2.24597 0.545081 2.41725 0.639308L24.9172 13.0143C25.0936 13.1114 25.2407 13.2541 25.3432 13.4274C25.4456 13.6008 25.4997 13.7984 25.4997 13.9998C25.4997 14.2012 25.4456 14.3988 25.3432 14.5722C25.2407 14.7455 25.0936 14.8882 24.9172 14.9853L2.41725 27.3603C2.25114 27.4518 2.06462 27.4997 1.875 27.4998Z" fill="white"/>
</svg>
