<svg width="269" height="140" viewBox="0 0 269 140" fill="none" xmlns="http://www.w3.org/2000/svg">
<rect width="258" height="140" rx="24" fill="white"/>
<path d="M60.1992 82.8271H83.6532V87.6922H60.1992V82.8271ZM229.813 67.209L237.207 59.0502H231.696L225.636 65.8313V59.0502H221.245V76.1967H225.658V68.9743L232.138 76.1967H237.799L229.813 67.209ZM86.2365 68.3392C86.1181 71.5683 85.709 72.1818 83.9223 72.1818V76.2074H84.5896C89.0781 76.2074 90.1437 73.8932 90.3051 68.7375L90.4989 63.0327H94.6429V76.1967H99.0344V59.0502H86.5378L86.2365 68.3392ZM67.1741 71.2884H76.4308L77.97 76.1967H83.1042L76.1832 55.5735C75.5159 53.5823 74.7409 52 72.093 52C69.4452 52 68.6379 53.5823 67.9275 55.5735L60.6728 76.1967H65.4949L67.1741 71.2884ZM71.867 57.3818H71.9854L75.0853 67.1552H68.5626L71.867 57.3818ZM174.455 61.4828H169.558V56.6391H180.924V52.3337H164.951V76.1967H174.455C179.719 76.1967 182.743 73.5703 182.743 68.7697C182.743 64.2167 179.676 61.4828 174.455 61.4828ZM174.229 71.8804H169.558V65.6806H174.229C176.662 65.6806 178.029 66.7569 178.029 68.7805C178.029 70.8041 176.662 71.8804 174.229 71.8804ZM130.798 58.6519V52.3014H126.417V58.6519C124.117 58.7278 121.941 59.7135 120.366 61.3926C118.792 63.0717 117.949 65.3069 118.021 67.6073C117.943 69.9124 118.784 72.1543 120.358 73.8397C121.932 75.5253 124.112 76.5163 126.417 76.5949V83.0531H130.809V76.5949C131.95 76.5573 133.074 76.295 134.114 75.8227C135.154 75.3505 136.091 74.6777 136.871 73.8429C137.651 73.0079 138.258 72.0275 138.659 70.9575C139.059 69.8874 139.245 68.749 139.204 67.6073C139.25 66.4648 139.068 65.3246 138.669 64.2533C138.27 63.1819 137.661 62.2008 136.879 61.3672C136.096 60.5336 135.155 59.8641 134.111 59.398C133.067 58.9318 131.941 58.6782 130.798 58.6519ZM126.428 72.4509C125.266 72.3233 124.2 71.7438 123.461 70.8378C122.722 69.9317 122.369 68.7715 122.478 67.6073C122.383 66.446 122.741 65.2931 123.478 64.3902C124.214 63.4873 125.271 62.9044 126.428 62.7636V72.4509ZM130.819 72.4509V62.7636C131.976 62.9044 133.033 63.4873 133.77 64.3902C134.506 65.2931 134.864 66.446 134.77 67.6073C134.873 68.7703 134.517 69.9275 133.779 70.8324C133.042 71.7372 131.979 72.318 130.819 72.4509ZM155.662 70.9332V65.1532C155.662 60.9338 152.982 58.2967 148.483 58.2967C143.983 58.2967 141.357 61.0953 141.142 64.0122H145.587C145.738 63.3879 146.405 62.2793 148.472 62.2793C148.858 62.2295 149.25 62.2702 149.617 62.3983C149.985 62.5264 150.318 62.7381 150.589 63.017C150.86 63.2958 151.064 63.634 151.182 64.0047C151.3 64.3755 151.331 64.7687 151.27 65.1532H146.965C143.068 65.1532 140.754 67.209 140.754 70.6103C140.724 71.422 140.864 72.231 141.166 72.985C141.468 73.739 141.925 74.4211 142.508 74.9873C143.09 75.5534 143.785 75.991 144.547 76.2717C145.309 76.5523 146.122 76.6697 146.933 76.6164C147.848 76.6645 148.76 76.4864 149.59 76.0978C150.42 75.7092 151.141 75.1221 151.69 74.3884C152.047 74.9927 152.568 75.4834 153.194 75.8034C153.818 76.1235 154.521 76.2598 155.221 76.1967H156.738V72.2356C155.996 72.2356 155.662 71.8804 155.662 70.9332ZM151.27 69.8569C151.289 70.2809 151.217 70.7039 151.058 71.0979C150.901 71.492 150.662 71.8483 150.358 72.1432C150.052 72.4381 149.688 72.665 149.289 72.809C148.889 72.9529 148.464 73.0106 148.041 72.9783C146.459 72.9783 145.21 72.4079 145.21 70.6964C145.21 68.985 146.599 68.7375 147.772 68.7375H151.27V69.8569ZM109.97 64.2598H106.817V59.0502H102.425V76.1967H110.046C114.814 76.1967 116.504 73.0967 116.504 70.169C116.525 66.391 114.157 64.2598 109.97 64.2598ZM109.647 72.4509H106.817V68.1455H109.647C111.165 68.1455 112.08 68.8343 112.08 70.2982C112.08 71.762 111.208 72.4509 109.647 72.4509ZM199.502 70.9332V65.1532C199.502 60.9338 196.822 58.2967 192.323 58.2967C187.824 58.2967 185.197 61.0953 184.982 64.0122H189.427C189.578 63.3879 190.245 62.2793 192.312 62.2793C192.699 62.2295 193.09 62.2702 193.457 62.3983C193.825 62.5264 194.158 62.7381 194.429 63.017C194.701 63.2958 194.904 63.634 195.022 64.0047C195.141 64.3755 195.171 64.7687 195.111 65.1532H190.805C186.909 65.1532 184.595 67.209 184.595 70.6103C184.564 71.422 184.704 72.231 185.007 72.985C185.308 73.739 185.766 74.4211 186.348 74.9873C186.93 75.5534 187.626 75.991 188.388 76.2717C189.15 76.5523 189.962 76.6697 190.773 76.6164C191.696 76.6736 192.62 76.4999 193.461 76.111C194.3 75.722 195.03 75.13 195.584 74.3884C195.936 74.9822 196.447 75.466 197.06 75.7855C197.672 76.1049 198.361 76.2474 199.05 76.1967H200.568V72.2356C199.804 72.2356 199.502 71.8804 199.502 70.9332ZM195.132 69.8569C195.148 70.2804 195.075 70.7026 194.917 71.0959C194.759 71.4892 194.52 71.8447 194.215 72.1393C193.91 72.4338 193.547 72.6608 193.148 72.8055C192.75 72.95 192.326 73.0089 191.903 72.9783C190.321 72.9783 189.072 72.4079 189.072 70.6964C189.072 68.985 190.461 68.7375 191.634 68.7375H195.132V69.8569ZM213.527 65.433H207.467V59.0502H203.076V76.2074H207.467V69.4479H213.527V76.1967H217.919V59.0502H213.527V65.433Z" fill="#EF3124"/>
</svg>
