<svg width="1920" height="639" viewBox="0 0 1920 639" fill="none" xmlns="http://www.w3.org/2000/svg">
<mask id="mask0_571_1874" style="mask-type:alpha" maskUnits="userSpaceOnUse" x="0" y="0" width="1926" height="639">
<rect width="1926" height="639" fill="#D9D9D9"/>
</mask>
<g mask="url(#mask0_571_1874)">
<g opacity="0.1">
<path d="M-218.759 829.218L-165.823 837.797C217.443 899.915 526.859 528.145 396.19 162.526L377.411 109.982C254.59 -233.676 547.069 -582.489 906.876 -521.465L1032.71 -500.124C1293.04 -455.97 1519.82 -680.458 1478.32 -941.228V-941.228" stroke="#0A0909"/>
<path d="M-191.501 852.102L-138.565 860.682C244.701 922.8 554.117 551.029 423.448 185.411L404.669 132.866C281.848 -210.791 574.327 -559.604 934.134 -498.58L1059.96 -477.239C1320.3 -433.085 1547.08 -657.573 1505.58 -918.343V-918.343" stroke="#0A0909"/>
<path d="M-164.236 874.986L-111.299 883.565C271.967 945.683 581.383 573.913 450.713 208.294L431.934 155.75C309.114 -187.908 601.592 -536.721 961.4 -475.697L1087.23 -454.356C1347.56 -410.202 1574.35 -634.69 1532.84 -895.46V-895.46" stroke="#0A0909"/>
<path d="M-136.978 897.871L-84.0416 906.451C299.225 968.568 608.64 596.798 477.971 231.179L459.192 178.635C336.372 -165.022 628.85 -513.836 988.657 -452.811L1114.49 -431.47C1374.82 -387.317 1601.61 -611.805 1560.1 -872.575V-872.575" stroke="#0A0909"/>
<path d="M-109.712 920.754L-56.776 929.334C326.49 991.452 635.906 619.681 505.237 254.063L486.458 201.518C363.637 -142.139 656.116 -490.953 1015.92 -429.928L1141.75 -408.587C1402.09 -364.433 1628.87 -588.921 1587.37 -849.692V-849.692" stroke="#0A0909"/>
<path d="M-82.4468 943.642L-29.5103 952.222C353.756 1014.34 663.172 642.569 532.502 276.95L513.723 224.406C390.903 -119.252 683.381 -468.065 1043.19 -407.041L1169.02 -385.699C1429.35 -341.546 1656.14 -566.034 1614.63 -826.804V-826.804" stroke="#0A0909"/>
<path d="M-55.1811 966.523L-2.2447 975.103C381.021 1037.22 690.437 665.45 559.768 299.831L540.989 247.287C418.168 -96.3704 710.647 -445.184 1070.45 -384.159L1196.28 -362.818C1456.62 -318.665 1683.4 -543.153 1641.9 -803.923V-803.923" stroke="#0A0909"/>
<path d="M-27.9233 989.407L25.0131 997.987C408.279 1060.1 717.695 688.334 587.026 322.716L568.247 270.171C445.426 -73.4861 737.905 -422.3 1097.71 -361.275L1223.54 -339.934C1483.88 -295.78 1710.66 -520.268 1669.16 -781.039V-781.039" stroke="#0A0909"/>
<path d="M-0.65769 1012.29L52.2787 1020.87C435.545 1082.99 744.961 711.221 614.291 345.602L595.512 293.058C472.692 -50.5996 765.17 -399.413 1124.98 -338.389L1250.81 -317.047C1511.14 -272.894 1737.93 -497.382 1696.42 -758.152V-758.152" stroke="#0A0909"/>
<path d="M26.6079 1035.18L79.5444 1043.76C462.811 1105.87 772.226 734.103 641.557 368.485L622.778 315.94C499.957 -27.7171 792.436 -376.531 1152.24 -315.506L1278.07 -294.165C1538.41 -250.011 1765.19 -474.499 1723.69 -735.27V-735.27" stroke="#0A0909"/>
<path d="M53.8657 1058.06L106.802 1066.64C490.068 1128.76 799.484 756.99 668.815 391.371L650.036 338.827C527.215 -4.83058 819.694 -353.644 1179.5 -292.62L1305.33 -271.278C1565.67 -227.125 1792.45 -451.613 1750.95 -712.383V-712.383" stroke="#0A0909"/>
<path d="M81.1314 1080.94L134.068 1089.52C517.334 1151.64 826.75 779.872 696.08 414.253L677.301 361.709C554.481 18.0515 846.959 -330.762 1206.77 -269.738L1332.6 -248.396C1592.93 -204.243 1819.72 -428.731 1778.21 -689.501V-689.501" stroke="#0A0909"/>
<path d="M108.397 1103.83L161.333 1112.41C544.6 1174.53 854.015 802.756 723.346 437.138L704.567 384.593C581.747 40.9359 874.225 -307.878 1234.03 -246.853L1359.86 -225.512C1620.2 -181.358 1846.98 -405.846 1805.48 -666.617V-666.617" stroke="#0A0909"/>
<path d="M135.655 1126.71L188.591 1135.29C571.857 1197.41 881.273 825.642 750.604 460.023L731.825 407.479C609.004 63.8213 901.483 -284.992 1261.29 -223.968L1387.12 -202.627C1647.46 -158.473 1874.24 -382.961 1832.73 -643.731V-643.731" stroke="#0A0909"/>
<path d="M162.92 1149.6L215.857 1158.18C599.123 1220.3 908.539 848.526 777.869 482.907L759.091 430.363C636.27 86.7053 928.749 -262.108 1288.56 -201.084L1414.39 -179.742C1674.72 -135.589 1901.5 -360.077 1860 -620.847V-620.847" stroke="#0A0909"/>
<path d="M189.538 1171.94L242.474 1180.52C625.74 1242.64 935.156 870.868 804.487 505.25L785.708 452.705C662.887 109.048 955.366 -239.766 1315.17 -178.741L1441 -157.4C1701.34 -113.246 1928.12 -337.734 1886.62 -598.505V-598.505" stroke="#0A0909"/>
<path d="M216.155 1194.28L269.091 1202.86C652.357 1264.98 961.773 893.211 831.104 527.593L812.325 475.048C689.504 131.391 981.983 -217.423 1341.79 -156.398L1467.62 -135.057C1727.96 -90.9033 1954.74 -315.391 1913.23 -576.162V-576.162" stroke="#0A0909"/>
<path d="M242.772 1216.63L295.708 1225.21C678.975 1287.33 988.39 915.555 857.721 549.937L838.942 497.392C716.122 153.735 1008.6 -195.079 1368.41 -134.054L1494.24 -112.713C1754.57 -68.5593 1981.36 -293.047 1939.85 -553.818V-553.818" stroke="#0A0909"/>
<path d="M269.389 1238.97L322.326 1247.55C705.592 1309.67 1015.01 937.897 884.338 572.278L865.559 519.734C742.739 176.076 1035.22 -172.737 1395.02 -111.713L1520.85 -90.3715C1781.19 -46.2179 2007.97 -270.706 1966.47 -531.476V-531.476" stroke="#0A0909"/>
<path d="M296.014 1261.31L348.951 1269.89C732.217 1332.01 1041.63 960.24 910.963 594.621L892.184 542.077C769.364 198.419 1061.84 -150.394 1421.65 -89.3698L1547.48 -68.0286C1807.81 -23.875 2034.6 -248.363 1993.09 -509.133V-509.133" stroke="#0A0909"/>
<path d="M322.631 1283.66L375.568 1292.24C758.834 1354.35 1068.25 982.584 937.58 616.965L918.801 564.421C795.981 220.764 1088.46 -128.05 1448.27 -67.0254L1574.1 -45.6841C1834.43 -1.53052 2061.22 -226.019 2019.71 -486.789V-486.789" stroke="#0A0909"/>
<path d="M349.241 1306L402.177 1314.58C785.443 1376.69 1094.86 1004.92 964.19 639.306L945.411 586.762C822.59 243.104 1115.07 -105.709 1474.88 -44.6849L1600.71 -23.3437C1861.04 20.8099 2087.82 -203.678 2046.32 -464.448V-464.448" stroke="#0A0909"/>
<path d="M375.866 1328.34L428.802 1336.92C812.068 1399.04 1121.48 1027.27 990.815 661.649L972.036 609.104C849.215 265.447 1141.69 -83.3666 1501.5 -22.3421L1627.33 -1.0009C1887.67 43.1527 2114.45 -181.335 2072.95 -442.106V-442.106" stroke="#0A0909"/>
<path d="M402.483 1350.68L455.419 1359.26C838.686 1421.38 1148.1 1049.61 1017.43 683.992L998.653 631.448C875.832 287.79 1168.31 -61.0232 1528.12 0.00125801L1653.95 21.3425C1914.28 65.4961 2141.07 -158.992 2099.56 -419.762V-419.762" stroke="#0A0909"/>
<path d="M429.1 1373.03L482.037 1381.61C865.303 1443.72 1174.72 1071.95 1044.05 706.334L1025.27 653.79C902.45 310.133 1194.93 -38.6807 1554.74 22.3438L1680.57 43.685C1940.9 87.8386 2167.68 -136.649 2126.18 -397.42V-397.42" stroke="#0A0909"/>
<path d="M455.717 1395.37L508.654 1403.95C891.92 1466.07 1201.34 1094.3 1070.67 728.677L1051.89 676.133C929.067 332.475 1221.55 -16.3383 1581.35 44.6862L1707.18 66.0274C1967.52 110.181 2194.3 -114.307 2152.8 -375.077V-375.077" stroke="#0A0909"/>
<path d="M482.334 1417.71L535.271 1426.29C918.537 1488.41 1227.95 1116.64 1097.28 751.02L1078.5 698.476C955.684 354.818 1248.16 6.0046 1607.97 67.0291L1733.8 88.3703C1994.13 132.524 2220.92 -91.9642 2179.41 -352.734V-352.734" stroke="#0A0909"/>
<path d="M508.952 1440.05L561.888 1448.63C945.154 1510.75 1254.57 1138.98 1123.9 773.363L1105.12 720.819C982.301 377.161 1274.78 28.3479 1634.59 89.3724L1760.42 110.714C2020.75 154.867 2247.54 -69.6209 2206.03 -330.391V-330.391" stroke="#0A0909"/>
<path d="M535.569 1462.4L588.505 1470.98C971.771 1533.09 1281.19 1161.32 1150.52 795.705L1131.74 743.161C1008.92 399.504 1301.4 50.6903 1661.2 111.715L1787.03 133.056C2047.37 177.21 2274.15 -47.2785 2232.65 -308.049V-308.049" stroke="#0A0909"/>
</g>
</g>
</svg>
