<svg width="32" height="32" viewBox="0 0 32 32" fill="none" xmlns="http://www.w3.org/2000/svg">
<g clip-path="url(#clip0_270_1199)">
<path d="M30.3825 10.829L28.0824 8.73475L27.2789 5.72985C27.1604 5.28592 26.9168 4.88541 26.5771 4.57604C26.2373 4.26666 25.8158 4.06147 25.3628 3.9849L22.2954 3.46749L19.9953 1.37324C19.6555 1.06392 19.234 0.858822 18.7809 0.782397C18.3279 0.705973 17.8624 0.761446 17.4399 0.942203L14.5792 2.16437L11.5127 1.64697C11.0595 1.5703 10.5939 1.62556 10.1713 1.80616C9.74873 1.98677 9.38699 2.28509 9.12924 2.66557L7.38428 5.2402L4.52358 6.46314C4.10121 6.64383 3.73967 6.94207 3.48198 7.32238C3.22429 7.70269 3.08132 8.14904 3.07008 8.60829L2.99376 11.7181L1.2488 14.2927C0.990928 14.673 0.847862 15.1195 0.836651 15.5788C0.82544 16.0382 0.946558 16.4911 1.18557 16.8835L2.80252 19.5407L2.72619 22.6504C2.71523 23.1097 2.83644 23.5624 3.07539 23.9547C3.31434 24.347 3.66097 24.6624 4.07404 24.8634L6.87075 26.2252L8.48847 28.8823C8.72719 29.2747 9.07371 29.5902 9.48672 29.7912C9.89973 29.9921 10.3618 30.0701 10.8179 30.0158L13.9069 29.6488L16.7043 31.0097C17.1175 31.2106 17.5796 31.2886 18.0358 31.2343C18.492 31.18 18.923 30.9958 19.2774 30.7036L21.6778 28.725L24.7668 28.3572C25.223 28.303 25.654 28.1187 26.0085 27.8265C26.363 27.5342 26.626 27.1462 26.7662 26.7086L27.7146 23.7469L30.115 21.7675C30.4695 21.4754 30.7326 21.0874 30.8727 20.6499C31.0128 20.2124 31.0242 19.7439 30.9053 19.3001L30.1026 16.2944L31.0518 13.3319C31.1919 12.8945 31.2033 12.4259 31.0846 11.9822C30.966 11.5384 30.7223 11.1382 30.3825 10.829ZM25.0875 18.0395C25.0875 18.8109 24.8157 19.5577 24.3199 20.1487L21.6982 23.2731C21.2024 23.8641 20.5142 24.2614 19.7546 24.3954L15.7378 25.1039C14.978 25.238 14.1953 25.1 13.5271 24.7142L9.99479 22.6748C9.32662 22.289 8.81576 21.6801 8.55195 20.9551L7.1572 17.1219C6.89346 16.3971 6.89348 15.6026 7.15724 14.8778L8.55192 11.0454C8.81575 10.3204 9.3266 9.71154 9.99473 9.32578L13.5271 7.28631C14.1952 6.90053 14.978 6.76254 15.7378 6.89656L19.7545 7.60509C20.5142 7.73909 21.2024 8.13645 21.6982 8.72738L24.3199 11.8518C24.8157 12.4428 25.0875 13.1896 25.0875 13.961L25.0875 18.0395Z" fill="#E31E24"/>
<path d="M11.3775 16.946L13.8203 19.3887C13.9349 19.5041 14.0712 19.5956 14.2214 19.6581C14.3715 19.7206 14.5325 19.7527 14.6952 19.7527C14.8578 19.7527 15.0188 19.7206 15.169 19.6581C15.3191 19.5956 15.4554 19.5041 15.57 19.3887L20.6104 14.3486C20.7294 14.2379 20.8239 14.1035 20.8877 13.9539C20.9515 13.8044 20.9831 13.6431 20.9806 13.4806C20.9824 13.3196 20.9516 13.1598 20.8901 13.011C20.8286 12.8622 20.7377 12.7273 20.6228 12.6145C20.5083 12.4984 20.3719 12.4061 20.2216 12.3431C20.0712 12.28 19.9099 12.2474 19.7468 12.2471C19.5838 12.2468 19.4223 12.2788 19.2717 12.3412C19.1211 12.4037 18.9844 12.4954 18.8695 12.6111L14.7006 16.78L13.1308 15.2102C12.9582 15.0374 12.7383 14.9195 12.4988 14.8715C12.2593 14.8235 12.0109 14.8475 11.785 14.9405C11.5592 15.0336 11.3659 15.1914 11.2297 15.3942C11.0935 15.597 11.0204 15.8355 11.0196 16.0798C11.0178 16.2408 11.0486 16.4006 11.1101 16.5494C11.1716 16.6983 11.2625 16.8332 11.3775 16.946Z" fill="#E31E24"/>
</g>
<defs>
<clipPath id="clip0_270_1199">
<rect width="32" height="32" fill="white"/>
</clipPath>
</defs>
</svg>
