<svg width="75" height="70" viewBox="0 0 75 70" fill="none" xmlns="http://www.w3.org/2000/svg">
<rect x="0.195312" width="74.0053" height="70" rx="12" fill="#F9E9E4"/>
<path d="M50.7 40.75C50.3 40.35 49.7 40.35 49.3 40.75C49 41.05 48.8 41.25 48.5 41.55L46 35.35C46 35.25 45.9 35.15 45.9 35.05L49.8 36.05C50.1 36.15 50.5 36.05 50.7 35.85C50.9 35.65 51.1 35.35 51 34.95L50.3 28.95C50 27.25 48.6 26.05 47 26.05C46.1 26.05 45.3 26.45 44.7 27.05L42.7 29.05H35.8L34.7 25.85C34.1 24.25 33 22.95 31.5 22.05C29.4 20.65 26.6 20.65 24.5 22.05L22.5 23.25C22.1 23.35 22 23.75 22 24.15L23 32.15C23.1 32.65 23.5 33.05 24 33.05H26C26.4 33.05 26.7 32.85 26.9 32.45L27.7 30.85C28.1 33.75 27.7 36.65 26.5 39.35L25.5 41.55C25.3 41.35 25 41.05 24.7 40.75C24.3 40.35 23.7 40.35 23.3 40.75C22.9 41.15 22.9 41.75 23.3 42.15C26.9 45.95 31.8 48.05 37 48.05C42.2 48.05 47.1 45.95 50.7 42.15C51.1 41.75 51.1 41.15 50.7 40.75ZM29.9 44.45C31.2 41.85 34 40.05 37 40.05C40 40.05 42.8 41.85 44.1 44.45C41.9 45.45 39.5 46.05 37 46.05C34.5 46.05 32.1 45.45 29.9 44.45Z" fill="#E31E24"/>
</svg>
