<svg width="75" height="70" viewBox="0 0 75 70" fill="none" xmlns="http://www.w3.org/2000/svg">
<rect x="0.78125" width="74.0053" height="70" rx="12" fill="#F9E9E4"/>
<path d="M51.0125 33.2375L48.45 30.675V27.0375C48.45 26.3745 48.1866 25.7386 47.7178 25.2698C47.2489 24.8009 46.613 24.5375 45.95 24.5375H42.325L39.7625 22.0375C39.2941 21.5719 38.6605 21.3105 38 21.3105C37.3395 21.3105 36.7059 21.5719 36.2375 22.0375L33.675 24.55H30.0375C29.3745 24.55 28.7386 24.8134 28.2697 25.2823C27.8009 25.7511 27.5375 26.387 27.5375 27.05V30.675L25.0375 33.2375C24.796 33.4644 24.602 33.7371 24.4668 34.0397C24.3316 34.3423 24.2579 34.6687 24.25 35C24.2495 35.6602 24.5101 36.2938 24.975 36.7625L27.55 39.325V42.9625C27.55 43.6256 27.8134 44.2615 28.2822 44.7303C28.7511 45.1991 29.387 45.4625 30.05 45.4625H33.675L36.2375 48.025C36.7062 48.4899 37.3398 48.7506 38 48.75C38.6602 48.7506 39.2938 48.4899 39.7625 48.025L42.325 45.45H45.9625C46.6255 45.45 47.2614 45.1866 47.7303 44.7178C48.1991 44.249 48.4625 43.6131 48.4625 42.95V39.325L51.025 36.7625C51.4906 36.2941 51.752 35.6605 51.752 35C51.752 34.3396 51.4906 33.7059 51.025 33.2375H51.0125Z" fill="#E31E24"/>
<path d="M40.8001 29.8126L33.3001 38.5626C33.1934 38.6873 33.1123 38.8319 33.0614 38.988C33.0106 39.1441 32.991 39.3086 33.0038 39.4723C33.0296 39.8028 33.1856 40.1096 33.4376 40.3251C33.6895 40.5406 34.0168 40.6471 34.3473 40.6213C34.6778 40.5956 34.9846 40.4395 35.2001 40.1876L42.7001 31.4376C42.9156 31.1856 43.0221 30.8584 42.9963 30.5278C42.9706 30.1973 42.8145 29.8906 42.5626 29.6751C42.3106 29.4596 41.9834 29.353 41.6528 29.3788C41.3223 29.4046 41.0156 29.5606 40.8001 29.8126Z" fill="#F9E9E4"/>
<path d="M36.6298 33.0626C36.9874 32.9593 37.3061 32.7519 37.5454 32.4668C37.7848 32.1817 37.9338 31.8319 37.9736 31.4618C38.0134 31.0917 37.9422 30.7181 37.769 30.3887C37.5958 30.0592 37.3284 29.7888 37.001 29.6118C36.6735 29.4348 36.3008 29.3593 35.9303 29.3948C35.5598 29.4304 35.2082 29.5754 34.9204 29.8114C34.6326 30.0474 34.4216 30.3638 34.3141 30.7201C34.2067 31.0765 34.2078 31.4568 34.3173 31.8126C34.4646 32.2807 34.7884 32.673 35.2201 32.9063C35.6518 33.1397 36.1574 33.1957 36.6298 33.0626Z" fill="#F9E9E4"/>
<path d="M39.3702 36.9375C39.0126 37.0408 38.6939 37.2482 38.4546 37.5333C38.2152 37.8184 38.0662 38.1682 38.0264 38.5383C37.9866 38.9084 38.0578 39.2819 38.231 39.6114C38.4042 39.9408 38.6716 40.2113 38.999 40.3883C39.3265 40.5653 39.6992 40.6408 40.0697 40.6053C40.4402 40.5697 40.7918 40.4247 41.0796 40.1887C41.3674 39.9526 41.5784 39.6363 41.6859 39.2799C41.7933 38.9235 41.7922 38.5433 41.6827 38.1875C41.5354 37.7194 41.2116 37.3271 40.7799 37.0938C40.3482 36.8604 39.8426 36.8044 39.3702 36.9375Z" fill="#F9E9E4"/>
</svg>
