<svg width="21" height="20" viewBox="0 0 21 20" fill="none" xmlns="http://www.w3.org/2000/svg">
<path d="M11.0718 0.586919C10.7362 -0.0729918 9.79352 -0.0729917 9.45798 0.586919L6.99673 5.42745C6.86271 5.69102 6.60841 5.87253 6.31559 5.91361L0.86179 6.6787C0.11071 6.78406 -0.185554 7.71101 0.365186 8.23246L4.2785 11.9376C4.49946 12.1468 4.60053 12.4531 4.5475 12.7527L3.6176 18.007C3.48738 18.7428 4.25438 19.3106 4.9201 18.9712L9.85374 16.456C10.112 16.3243 10.4177 16.3243 10.676 16.456L15.6097 18.9712C16.2754 19.3106 17.0424 18.7428 16.9122 18.007L15.9823 12.7531C15.9293 12.4533 16.0305 12.1468 16.2518 11.9376L20.1641 8.23854C20.7151 7.71754 20.4197 6.79052 19.6688 6.68446L14.2136 5.91397C13.9211 5.87266 13.6671 5.69124 13.5333 5.42793L11.0718 0.586919Z" fill="#EFB236"/>
</svg>
