<svg width="259" height="140" viewBox="0 0 259 140" fill="none" xmlns="http://www.w3.org/2000/svg">
<rect width="258" height="140" rx="24" fill="white"/>
<path d="M66.5 72.283C66.5 77.475 69.415 82.7001 75.927 82.7001C82.439 82.7001 85.354 77.475 85.354 72.283C85.354 68.741 84.155 64.66 82.164 61.371C80.228 58.192 77.896 56.3 75.927 56.3C73.958 56.3 71.626 58.192 69.701 61.371C67.699 64.6711 66.5 68.741 66.5 72.283ZM133.446 64.077H126.846V57.719H147.119V64.088H140.519V81.2921H133.446V64.077ZM162.2 64.077H172.573V57.719H162.2C152.674 57.719 147.581 62.46 147.581 69.5C147.581 76.551 152.674 81.281 162.2 81.281H172.573V74.9121H162.2C157.789 74.9121 154.885 73.339 154.885 69.489C154.885 65.65 157.789 64.077 162.2 64.077ZM108.685 71.788L112.458 57.719H124.954V81.2921H117.881V62.097L112.744 81.281H104.637L99.5 62.108V81.281H92.427V57.719H104.923L108.685 71.788ZM190.184 64.55H187.687V66.86H190.184C190.811 66.86 191.196 66.53 191.196 65.936V65.507C191.185 64.8911 190.866 64.55 190.184 64.55ZM190.811 69.5H184.354V57.719H193.847V60.535H187.676V62.075H190.8C193.418 62.075 194.683 63.373 194.683 65.661C194.694 68.07 193.429 69.5 190.811 69.5ZM202.372 64.682H199.743L201.063 60.326L202.372 64.682ZM207.432 69.5L203.791 57.719H198.841L195.2 69.5H198.313L198.984 67.245H203.153L203.835 69.5H207.432ZM215.847 69.5V64.935H212.041V69.5H208.631V57.719H212.041V62.042H215.847V57.719H219.268V69.5H215.847ZM225.329 62.031H224.735V57.719H221.325V69.5H224.735V64.935H225.23L228.387 69.5H232.336L228.068 63.329L231.995 57.708H228.387L225.329 62.031Z" fill="#E30600"/>
</svg>
