<svg width="1590" height="500" viewBox="0 0 1590 500" fill="none" xmlns="http://www.w3.org/2000/svg">
<mask id="mask0_353_1214" style="mask-type:alpha" maskUnits="userSpaceOnUse" x="0" y="0" width="1590" height="500">
<rect width="1590" height="500" rx="25" fill="#F0F2F2"/>
</mask>
<g mask="url(#mask0_353_1214)">
<g opacity="0.1">
<path d="M-398.759 1418.22L-345.823 1426.8C37.4433 1488.92 346.859 1117.15 216.19 751.526L197.411 698.982C74.5903 355.325 367.069 6.51107 726.876 67.5356L852.706 88.8768C1113.04 133.03 1339.82 -91.4577 1298.32 -352.228V-352.228" stroke="#0A0909"/>
<path d="M-371.501 1441.1L-318.565 1449.68C64.7011 1511.8 374.117 1140.03 243.448 774.411L224.669 721.867C101.848 378.21 394.327 29.3961 754.134 90.4206L879.964 111.762C1140.3 155.915 1367.08 -68.5727 1325.58 -329.343V-329.343" stroke="#0A0909"/>
<path d="M-344.236 1463.99L-291.299 1472.57C91.9668 1534.68 401.383 1162.91 270.713 797.294L251.934 744.75C129.114 401.093 421.592 52.2791 781.4 113.304L907.23 134.645C1167.56 178.798 1394.35 -45.6897 1352.84 -306.46V-306.46" stroke="#0A0909"/>
<path d="M-316.978 1486.87L-264.042 1495.45C119.225 1557.57 428.64 1185.8 297.971 820.179L279.192 767.635C156.372 423.978 448.85 75.1643 808.657 136.189L934.488 157.53C1194.82 201.684 1421.61 -22.8045 1380.1 -283.575V-283.575" stroke="#0A0909"/>
<path d="M-289.712 1509.75L-236.776 1518.33C146.49 1580.45 455.906 1208.68 325.237 843.063L306.458 790.519C183.637 446.861 476.116 98.0477 835.923 159.072L961.753 180.413C1222.09 224.567 1448.87 0.078896 1407.37 -260.691V-260.691" stroke="#0A0909"/>
<path d="M-262.447 1532.64L-209.51 1541.22C173.756 1603.34 483.172 1231.57 352.502 865.951L333.723 813.406C210.903 469.749 503.381 120.935 863.189 181.96L989.019 203.301C1249.35 247.455 1476.14 22.9666 1434.63 -237.804V-237.804" stroke="#0A0909"/>
<path d="M-235.181 1555.52L-182.245 1564.1C201.021 1626.22 510.437 1254.45 379.768 888.832L360.989 836.287C238.168 492.63 530.647 143.816 890.454 204.841L1016.28 226.182C1276.62 270.336 1503.4 45.8477 1461.9 -214.922V-214.922" stroke="#0A0909"/>
<path d="M-207.923 1578.41L-154.987 1586.99C228.279 1649.11 537.695 1277.33 407.026 911.716L388.247 859.172C265.426 515.514 557.905 166.701 917.712 227.725L1043.54 249.066C1303.88 293.22 1530.66 68.732 1489.16 -192.038V-192.038" stroke="#0A0909"/>
<path d="M-180.658 1601.29L-127.721 1609.87C255.545 1671.99 564.961 1300.22 434.291 934.602L415.512 882.058C292.692 538.401 585.17 189.587 944.978 250.612L1070.81 271.953C1331.14 316.107 1557.93 91.6185 1516.42 -169.152V-169.152" stroke="#0A0909"/>
<path d="M-153.392 1624.18L-100.456 1632.76C282.811 1694.87 592.226 1323.1 461.557 957.485L442.778 904.941C319.957 561.283 612.436 212.47 972.243 273.494L1098.07 294.835C1358.41 338.989 1585.19 114.501 1543.69 -146.269V-146.269" stroke="#0A0909"/>
<path d="M-126.134 1647.06L-73.1978 1655.64C310.068 1717.76 619.484 1345.99 488.815 980.371L470.036 927.827C347.215 584.17 639.694 235.356 999.501 296.381L1125.33 317.722C1385.67 361.876 1612.45 137.387 1570.95 -123.383V-123.383" stroke="#0A0909"/>
<path d="M-98.8686 1669.95L-45.9322 1678.52C337.334 1740.64 646.75 1368.87 516.08 1003.25L497.301 950.709C374.481 607.052 666.959 258.238 1026.77 319.263L1152.6 340.604C1412.93 384.758 1639.72 160.27 1598.21 -100.501V-100.501" stroke="#0A0909"/>
<path d="M-71.603 1692.83L-18.6666 1701.41C364.6 1763.53 674.015 1391.76 543.346 1026.14L524.567 973.594C401.747 629.936 694.225 281.123 1054.03 342.147L1179.86 363.488C1440.2 407.642 1666.98 183.154 1625.48 -77.6162V-77.6162" stroke="#0A0909"/>
<path d="M-44.3452 1715.72L8.59124 1724.29C391.857 1786.41 701.273 1414.64 570.604 1049.02L551.825 996.479C429.004 652.822 721.483 304.008 1081.29 365.033L1207.12 386.374C1467.46 430.528 1694.24 206.039 1652.73 -54.7307V-54.7307" stroke="#0A0909"/>
<path d="M-17.0796 1738.6L35.8569 1747.18C419.123 1809.3 728.539 1437.53 597.869 1071.91L579.091 1019.36C456.27 675.706 748.749 326.892 1108.56 387.917L1234.39 409.258C1494.72 453.412 1721.5 228.924 1680 -31.8467V-31.8467" stroke="#0A0909"/>
<path d="M9.53762 1760.94L62.474 1769.52C445.74 1831.64 755.156 1459.87 624.487 1094.25L605.708 1041.71C482.887 698.048 775.366 349.235 1135.17 410.259L1261 431.601C1521.34 475.754 1748.12 251.266 1706.62 -9.50403V-9.50403" stroke="#0A0909"/>
<path d="M36.1548 1783.28L89.0912 1791.86C472.357 1853.98 781.773 1482.21 651.104 1116.59L632.325 1064.05C509.504 720.391 801.983 371.578 1161.79 432.602L1287.62 453.944C1547.96 498.097 1774.74 273.609 1733.23 12.8389V12.8389" stroke="#0A0909"/>
<path d="M62.772 1805.63L115.708 1814.21C498.975 1876.33 808.39 1504.56 677.721 1138.94L658.942 1086.39C536.122 742.735 828.6 393.922 1188.41 454.946L1314.24 476.288C1574.57 520.441 1801.36 295.953 1759.85 35.1829V35.1829" stroke="#0A0909"/>
<path d="M89.3892 1827.97L142.326 1836.55C525.592 1898.67 835.008 1526.9 704.338 1161.28L685.559 1108.73C562.739 765.077 855.217 416.263 1215.02 477.288L1340.85 498.629C1601.19 542.783 1827.97 318.294 1786.47 57.5242V57.5242" stroke="#0A0909"/>
<path d="M116.014 1850.31L168.951 1858.89C552.217 1921.01 861.633 1549.24 730.963 1183.62L712.184 1131.08C589.364 787.42 881.842 438.606 1241.65 499.631L1367.48 520.972C1627.81 565.125 1854.6 340.637 1813.09 79.8671V79.8671" stroke="#0A0909"/>
<path d="M142.631 1872.66L195.568 1881.24C578.834 1943.35 888.25 1571.58 757.58 1205.97L738.801 1153.42C615.981 809.764 908.459 460.951 1268.27 521.975L1394.1 543.316C1654.43 587.47 1881.22 362.982 1839.71 102.212V102.212" stroke="#0A0909"/>
<path d="M169.241 1895L222.177 1903.58C605.443 1965.7 914.859 1593.93 784.19 1228.31L765.411 1175.76C642.59 832.105 935.069 483.291 1294.88 544.316L1420.71 565.657C1681.04 609.81 1907.82 385.322 1866.32 124.552V124.552" stroke="#0A0909"/>
<path d="M195.866 1917.34L248.802 1925.92C632.068 1988.04 941.484 1616.27 810.815 1250.65L792.036 1198.1C669.215 854.447 961.694 505.634 1321.5 566.658L1447.33 588C1707.67 632.153 1934.45 407.665 1892.95 146.895V146.895" stroke="#0A0909"/>
<path d="M222.483 1939.68L275.419 1948.26C658.686 2010.38 968.101 1638.61 837.432 1272.99L818.653 1220.45C695.832 876.791 988.311 527.977 1348.12 589.002L1473.95 610.343C1734.28 654.497 1961.07 430.008 1919.56 169.238V169.238" stroke="#0A0909"/>
<path d="M249.1 1962.03L302.037 1970.61C685.303 2032.72 994.719 1660.95 864.049 1295.33L845.27 1242.79C722.45 899.133 1014.93 550.32 1374.74 611.344L1500.57 632.686C1760.9 676.839 1987.68 452.351 1946.18 191.581V191.581" stroke="#0A0909"/>
<path d="M275.717 1984.37L328.654 1992.95C711.92 2055.07 1021.34 1683.3 890.666 1317.68L871.887 1265.13C749.067 921.476 1041.55 572.662 1401.35 633.687L1527.18 655.028C1787.52 699.181 2014.3 474.693 1972.8 213.923V213.923" stroke="#0A0909"/>
<path d="M302.334 2006.71L355.271 2015.29C738.537 2077.41 1047.95 1705.64 917.284 1340.02L898.505 1287.48C775.684 943.818 1068.16 595.005 1427.97 656.029L1553.8 677.371C1814.13 721.524 2040.92 497.036 1999.41 236.266V236.266" stroke="#0A0909"/>
<path d="M328.952 2029.06L381.888 2037.63C765.154 2099.75 1074.57 1727.98 943.901 1362.36L925.122 1309.82C802.301 966.162 1094.78 617.348 1454.59 678.373L1580.42 699.714C1840.75 743.868 2067.54 519.379 2026.03 258.609V258.609" stroke="#0A0909"/>
<path d="M355.569 2051.4L408.505 2059.98C791.771 2122.1 1101.19 1750.32 970.518 1384.71L951.739 1332.16C828.918 988.504 1121.4 639.691 1481.2 700.715L1607.03 722.056C1867.37 766.21 2094.15 541.722 2052.65 280.952V280.952" stroke="#0A0909"/>
</g>
</g>
</svg>
