<svg width="211" height="54" viewBox="0 0 211 54" fill="none" xmlns="http://www.w3.org/2000/svg">
<circle cx="26.6077" cy="27.3925" r="26.6077" fill="#F03B3B"/>
<path d="M17.7351 38.7102V35.6243L28.6233 20.6981H17.7461V16.2991H35.4736V19.385L24.5854 34.3111H35.4626V38.7102H17.7351Z" fill="white"/>
<ellipse cx="26.6077" cy="26.5068" rx="26.6077" ry="25.9013" fill="#F03B3B"/>
<path d="M75.4075 19.1808H80.168L85.8601 29.4743H86.0874L91.7795 19.1808H96.54L88.0756 33.769V42.4492H83.8719V33.769L75.4075 19.1808ZM104.153 42.7901C102.403 42.7901 100.892 42.4265 99.6192 41.6994C98.3543 40.9646 97.381 39.927 96.6993 38.5863C96.0176 37.2381 95.6768 35.6512 95.6768 33.8258C95.6768 32.0307 96.0176 30.4552 96.6993 29.0994C97.3886 27.736 98.3505 26.6756 99.5852 25.9182C100.82 25.1531 102.27 24.7706 103.937 24.7706C105.012 24.7706 106.027 24.9449 106.982 25.2933C107.943 25.6341 108.792 26.1643 109.527 26.8839C110.269 27.6035 110.852 28.52 111.276 29.6334C111.7 30.7392 111.912 32.0572 111.912 33.5872V34.8483H97.6083V32.0761H107.97C107.962 31.2884 107.792 30.5878 107.459 29.9742C107.125 29.3531 106.66 28.8646 106.061 28.5086C105.47 28.1526 104.781 27.9746 103.993 27.9746C103.153 27.9746 102.414 28.1791 101.778 28.5881C101.142 28.9896 100.646 29.5198 100.29 30.1787C99.9412 30.8301 99.7632 31.5459 99.7556 32.3261V34.7461C99.7556 35.7611 99.9412 36.6321 100.312 37.3592C100.683 38.0788 101.202 38.6317 101.869 39.018C102.535 39.3967 103.316 39.5861 104.209 39.5861C104.808 39.5861 105.349 39.5028 105.834 39.3362C106.319 39.1619 106.739 38.9082 107.095 38.5749C107.451 38.2417 107.72 37.8289 107.902 37.3365L111.742 37.7683C111.5 38.7832 111.038 39.6694 110.356 40.4269C109.682 41.1767 108.818 41.76 107.765 42.1765C106.713 42.5856 105.508 42.7901 104.153 42.7901ZM119.65 19.1808V42.4492H115.537V19.1808H119.65ZM128.137 19.1808V42.4492H124.024V19.1808H128.137ZM135.045 42.6992C134.356 42.6992 133.765 42.4568 133.273 41.972C132.781 41.4873 132.538 40.8965 132.546 40.1996C132.538 39.5179 132.781 38.9347 133.273 38.45C133.765 37.9652 134.356 37.7228 135.045 37.7228C135.712 37.7228 136.291 37.9652 136.784 38.45C137.284 38.9347 137.537 39.5179 137.545 40.1996C137.537 40.6617 137.416 41.082 137.181 41.4608C136.954 41.8395 136.651 42.1425 136.272 42.3697C135.901 42.5893 135.492 42.6992 135.045 42.6992ZM141.936 42.4492V24.9979H145.924V27.9064H146.106C146.424 26.899 146.97 26.1227 147.742 25.5773C148.522 25.0244 149.412 24.7479 150.412 24.7479C150.639 24.7479 150.893 24.7593 151.173 24.782C151.461 24.7972 151.7 24.8237 151.889 24.8615V28.6449C151.715 28.5843 151.438 28.5313 151.06 28.4859C150.689 28.4328 150.329 28.4063 149.98 28.4063C149.231 28.4063 148.556 28.5692 147.958 28.8949C147.367 29.213 146.901 29.6561 146.561 30.2242C146.22 30.7923 146.049 31.4474 146.049 32.1897V42.4492H141.936ZM165.89 35.1097V24.9979H170.003V42.4492H166.015V39.3475H165.833C165.439 40.3246 164.791 41.1237 163.89 41.7448C162.996 42.3659 161.894 42.6764 160.584 42.6764C159.44 42.6764 158.429 42.4227 157.55 41.9152C156.679 41.4002 155.998 40.6541 155.505 39.677C155.013 38.6923 154.767 37.5032 154.767 36.1095V24.9979H158.88V35.4732C158.88 36.5791 159.183 37.4577 159.789 38.1091C160.395 38.7605 161.19 39.0862 162.174 39.0862C162.78 39.0862 163.367 38.9385 163.936 38.6431C164.504 38.3477 164.969 37.9084 165.333 37.3252C165.704 36.7344 165.89 35.9959 165.89 35.1097Z" fill="#1F2938"/>
<path d="M14.2646 15.7006H20.5137L26.5308 27.0648H26.7885L32.8056 15.7006H39.0547L29.4299 32.7599V42.0884H23.8894V32.7599L14.2646 15.7006Z" fill="white"/>
</svg>
